<svg version="1.1" id="Layer_1" xmlns="http://www.w3.org/2000/svg" xmlns:xlink="http://www.w3.org/1999/xlink" x="0px" y="0px"
	 width="100%" viewBox="0 0 500 500" enable-background="new 0 0 500 500" xml:space="preserve">
<path fill="#5F5BCD" opacity="1.000000" stroke="none" 
	d="
M1.000002,484.000000 
	C1.000000,328.975922 1.000000,173.951843 1.313573,18.318645 
	C5.042096,8.612042 11.407632,2.935442 21.000000,1.000000 
	C174.024078,1.000000 327.048157,1.000000 480.904358,1.000500 
	C491.582703,3.334991 497.566315,9.802960 501.000000,19.000000 
	C501.000000,173.690750 501.000000,328.381500 500.680023,483.669800 
	C496.953522,493.370148 490.537292,498.990631 481.000000,501.000000 
	C327.975922,501.000000 174.951843,501.000000 21.095682,500.999512 
	C16.086809,498.736481 11.417993,497.050415 7.884474,494.034241 
	C4.905284,491.491272 3.244417,487.403809 1.000002,484.000000 
M367.659760,211.071335 
	C357.649872,234.190735 347.640015,257.310150 337.105347,281.641724 
	C335.699860,278.507324 334.816528,276.618561 333.998932,274.701813 
	C321.397705,245.161270 308.829315,215.606644 296.143097,186.102676 
	C295.464722,184.524963 293.844055,182.227112 292.606659,182.191544 
	C281.837921,181.881973 271.056580,182.012894 259.985474,182.012894 
	C260.203766,183.139023 260.215546,183.810928 260.461578,184.381882 
	C279.822052,229.311554 299.177246,274.243622 318.692932,319.105896 
	C319.277130,320.448792 321.532349,321.823456 323.052155,321.874146 
	C331.207367,322.146332 339.384216,321.796204 347.537079,322.101318 
	C350.989807,322.230499 352.452911,320.957214 353.749908,317.943420 
	C372.629272,274.073944 391.632507,230.257767 410.589966,186.421875 
	C411.148712,185.129929 411.530975,183.761658 412.144104,182.002716 
	C401.878326,182.002716 392.221588,181.887100 382.574677,182.142822 
	C381.308075,182.176392 379.554199,183.865067 378.940155,185.205856 
	C375.130096,193.525040 371.581207,201.963806 367.659760,211.071335 
M187.871582,249.500046 
	C187.871582,235.932617 187.871582,222.365173 187.871582,208.308594 
	C203.213791,208.308594 217.652237,208.308594 232.232452,208.308594 
	C232.232452,199.284866 232.232452,190.771500 232.232452,182.277695 
	C191.518204,182.277695 151.255371,182.277695 110.936287,182.277695 
	C110.936287,191.099533 110.936287,199.632172 110.936287,208.673553 
	C125.829666,208.673553 140.253220,208.673553 155.207153,208.673553 
	C155.207153,246.601624 155.207153,284.013977 155.207153,321.689270 
	C166.298492,321.689270 176.844421,321.689270 187.871582,321.689270 
	C187.871582,297.750854 187.871582,274.125458 187.871582,249.500046 
z"/>
<path fill="#FAFAFD" opacity="1.000000" stroke="none" 
	d="
M501.000000,18.530293 
	C497.566315,9.802960 491.582703,3.334991 481.368225,1.000500 
	C487.588562,1.000000 494.177094,1.000000 501.000000,1.000000 
	C501.000000,6.684732 501.000000,12.372658 501.000000,18.530293 
z"/>
<path fill="#FAFAFD" opacity="1.000000" stroke="none" 
	d="
M481.469055,501.000000 
	C490.537292,498.990631 496.953522,493.370148 500.680023,484.133667 
	C501.000000,489.598663 501.000000,495.197296 501.000000,501.000000 
	C494.647064,501.000000 488.292572,501.000000 481.469055,501.000000 
z"/>
<path fill="#FAFAFD" opacity="1.000000" stroke="none" 
	d="
M20.530956,1.000000 
	C11.407632,2.935442 5.042096,8.612042 1.313573,17.854761 
	C1.000000,12.401347 1.000000,6.802694 1.000000,1.000000 
	C7.352935,1.000000 13.707425,1.000000 20.530956,1.000000 
z"/>
<path fill="#FAFAFD" opacity="1.000000" stroke="none" 
	d="
M1.000002,484.470459 
	C3.244417,487.403809 4.905284,491.491272 7.884474,494.034241 
	C11.417993,497.050415 16.086809,498.736481 20.631798,500.999512 
	C14.413866,501.000000 7.827733,501.000000 1.000000,501.000000 
	C1.000000,495.649384 1.000000,490.295135 1.000002,484.470459 
z"/>
<path fill="#FEFEFF" opacity="1.000000" stroke="none" 
	d="
M367.802704,210.717102 
	C371.581207,201.963806 375.130096,193.525040 378.940155,185.205856 
	C379.554199,183.865067 381.308075,182.176392 382.574677,182.142822 
	C392.221588,181.887100 401.878326,182.002716 412.144104,182.002716 
	C411.530975,183.761658 411.148712,185.129929 410.589966,186.421875 
	C391.632507,230.257767 372.629272,274.073944 353.749908,317.943420 
	C352.452911,320.957214 350.989807,322.230499 347.537079,322.101318 
	C339.384216,321.796204 331.207367,322.146332 323.052155,321.874146 
	C321.532349,321.823456 319.277130,320.448792 318.692932,319.105896 
	C299.177246,274.243622 279.822052,229.311554 260.461578,184.381882 
	C260.215546,183.810928 260.203766,183.139023 259.985474,182.012894 
	C271.056580,182.012894 281.837921,181.881973 292.606659,182.191544 
	C293.844055,182.227112 295.464722,184.524963 296.143097,186.102676 
	C308.829315,215.606644 321.397705,245.161270 333.998932,274.701813 
	C334.816528,276.618561 335.699860,278.507324 337.105347,281.641724 
	C347.640015,257.310150 357.649872,234.190735 367.802704,210.717102 
z"/>
<path fill="#FDFDFE" opacity="1.000000" stroke="none" 
	d="
M187.871582,250.000061 
	C187.871582,274.125458 187.871582,297.750854 187.871582,321.689270 
	C176.844421,321.689270 166.298492,321.689270 155.207153,321.689270 
	C155.207153,284.013977 155.207153,246.601624 155.207153,208.673553 
	C140.253220,208.673553 125.829666,208.673553 110.936287,208.673553 
	C110.936287,199.632172 110.936287,191.099533 110.936287,182.277695 
	C151.255371,182.277695 191.518204,182.277695 232.232452,182.277695 
	C232.232452,190.771500 232.232452,199.284866 232.232452,208.308594 
	C217.652237,208.308594 203.213791,208.308594 187.871582,208.308594 
	C187.871582,222.365173 187.871582,235.932617 187.871582,250.000061 
z"/>
</svg>