<svg version="1.1" id="Layer_1" xmlns="http://www.w3.org/2000/svg" xmlns:xlink="http://www.w3.org/1999/xlink" x="0px" y="0px"
	 width="100%" viewBox="0 0 500 500" enable-background="new 0 0 500 500" xml:space="preserve">
<path fill="#5F5BCD" opacity="1.000000" stroke="none" 
	d="
M0.999996,484.000000 
	C1.000000,328.975922 1.000000,173.951843 1.313582,18.318546 
	C5.042724,8.612583 11.407041,2.934643 21.000000,1.000000 
	C174.024078,1.000000 327.048157,1.000000 480.904449,1.000500 
	C491.582794,3.335072 497.566681,9.802672 501.000000,19.000000 
	C501.000000,173.690750 501.000000,328.381500 500.680054,483.669800 
	C496.953491,493.370117 490.537354,498.990723 481.000000,501.000000 
	C327.975922,501.000000 174.951843,501.000000 21.095505,500.999512 
	C16.086342,498.736572 11.417373,497.050629 7.883831,494.034485 
	C4.904713,491.491608 3.244175,487.403931 0.999996,484.000000 
M228.762970,193.719757 
	C221.081253,187.310638 211.997849,183.493134 202.267838,183.202332 
	C174.819519,182.382019 147.345703,182.414276 119.881721,182.131119 
	C119.603012,182.128235 119.321426,182.404099 118.916748,182.614532 
	C118.916748,228.938339 118.916748,275.315460 118.916748,321.663147 
	C146.753601,321.663147 174.235138,322.134216 201.683060,321.380707 
	C210.092361,321.149872 218.818726,318.549347 226.678543,315.292938 
	C240.488556,309.571289 247.142624,298.351074 246.990463,283.300018 
	C246.839294,268.348846 240.006531,257.621735 226.532944,251.127869 
	C225.275879,250.522003 224.031281,249.890244 222.625656,249.193573 
	C243.632843,231.106384 246.011887,210.566284 228.762970,193.719757 
M275.515442,181.994507 
	C271.373260,181.994507 267.231079,181.994507 262.866272,181.994507 
	C262.866272,190.940750 262.866272,199.482803 262.866272,208.531769 
	C277.693726,208.531769 292.122864,208.531769 307.246277,208.531769 
	C307.246277,246.579437 307.246277,284.123199 307.246277,321.574341 
	C318.505646,321.574341 329.057037,321.574341 340.104950,321.574341 
	C340.104950,283.724304 340.104950,246.302933 340.104950,208.246338 
	C355.181488,208.246338 369.757812,208.246338 384.318420,208.246338 
	C384.318420,199.174942 384.318420,190.749786 384.318420,181.994507 
	C348.139771,181.994507 312.324768,181.994507 275.515442,181.994507 
z"/>
<path fill="#FAFAFD" opacity="1.000000" stroke="none" 
	d="
M481.469055,501.000000 
	C490.537354,498.990723 496.953491,493.370117 500.680054,484.133667 
	C501.000000,489.598663 501.000000,495.197296 501.000000,501.000000 
	C494.647064,501.000000 488.292572,501.000000 481.469055,501.000000 
z"/>
<path fill="#FAFAFD" opacity="1.000000" stroke="none" 
	d="
M501.000000,18.530293 
	C497.566681,9.802672 491.582794,3.335072 481.368347,1.000500 
	C487.588562,1.000000 494.177094,1.000000 501.000000,1.000000 
	C501.000000,6.684732 501.000000,12.372658 501.000000,18.530293 
z"/>
<path fill="#FAFAFD" opacity="1.000000" stroke="none" 
	d="
M20.530956,1.000000 
	C11.407041,2.934643 5.042724,8.612583 1.313582,17.854660 
	C1.000000,12.401347 1.000000,6.802694 1.000000,1.000000 
	C7.352935,1.000000 13.707425,1.000000 20.530956,1.000000 
z"/>
<path fill="#FAFAFD" opacity="1.000000" stroke="none" 
	d="
M0.999996,484.470459 
	C3.244175,487.403931 4.904713,491.491608 7.883831,494.034485 
	C11.417373,497.050629 16.086342,498.736572 20.631620,500.999512 
	C14.413866,501.000000 7.827733,501.000000 1.000000,501.000000 
	C1.000000,495.649384 1.000000,490.295135 0.999996,484.470459 
z"/>
<path fill="#FEFEFF" opacity="1.000000" stroke="none" 
	d="
M229.044632,193.938782 
	C246.011887,210.566284 243.632843,231.106384 222.625656,249.193573 
	C224.031281,249.890244 225.275879,250.522003 226.532944,251.127869 
	C240.006531,257.621735 246.839294,268.348846 246.990463,283.300018 
	C247.142624,298.351074 240.488556,309.571289 226.678543,315.292938 
	C218.818726,318.549347 210.092361,321.149872 201.683060,321.380707 
	C174.235138,322.134216 146.753601,321.663147 118.916748,321.663147 
	C118.916748,275.315460 118.916748,228.938339 118.916748,182.614532 
	C119.321426,182.404099 119.603012,182.128235 119.881721,182.131119 
	C147.345703,182.414276 174.819519,182.382019 202.267838,183.202332 
	C211.997849,183.493134 221.081253,187.310638 229.044632,193.938782 
M167.501999,262.996979 
	C162.075699,262.996979 156.649384,262.996979 151.137573,262.996979 
	C151.137573,274.776184 151.137573,285.862457 151.137573,297.565399 
	C162.315079,297.565399 173.259720,297.732086 184.195786,297.497650 
	C189.983978,297.373566 195.890244,297.153564 201.507675,295.911560 
	C211.211945,293.765900 215.287140,287.279388 214.080643,277.502045 
	C213.203156,270.391052 207.901840,265.023865 198.867310,264.117493 
	C188.809113,263.108459 178.628693,263.317932 167.501999,262.996979 
M171.494705,206.433655 
	C164.737686,206.433655 157.980667,206.433655 151.279724,206.433655 
	C151.279724,217.810318 151.279724,228.375870 151.279724,239.259705 
	C162.306778,239.259705 172.949844,239.372574 183.588257,239.199387 
	C187.385513,239.137558 191.269058,238.776260 194.942841,237.864883 
	C203.232468,235.808411 207.313217,230.462357 207.234055,222.555344 
	C207.157089,214.868225 203.298706,209.581711 194.817413,208.036880 
	C187.520142,206.707733 179.944107,206.909103 171.494705,206.433655 
z"/>
<path fill="#FDFDFE" opacity="1.000000" stroke="none" 
	d="
M276.012604,181.994507 
	C312.324768,181.994507 348.139771,181.994507 384.318420,181.994507 
	C384.318420,190.749786 384.318420,199.174942 384.318420,208.246338 
	C369.757812,208.246338 355.181488,208.246338 340.104950,208.246338 
	C340.104950,246.302933 340.104950,283.724304 340.104950,321.574341 
	C329.057037,321.574341 318.505646,321.574341 307.246277,321.574341 
	C307.246277,284.123199 307.246277,246.579437 307.246277,208.531769 
	C292.122864,208.531769 277.693726,208.531769 262.866272,208.531769 
	C262.866272,199.482803 262.866272,190.940750 262.866272,181.994507 
	C267.231079,181.994507 271.373260,181.994507 276.012604,181.994507 
z"/>
<path fill="#615DCE" opacity="1.000000" stroke="none" 
	d="
M168.001740,262.996979 
	C178.628693,263.317932 188.809113,263.108459 198.867310,264.117493 
	C207.901840,265.023865 213.203156,270.391052 214.080643,277.502045 
	C215.287140,287.279388 211.211945,293.765900 201.507675,295.911560 
	C195.890244,297.153564 189.983978,297.373566 184.195786,297.497650 
	C173.259720,297.732086 162.315079,297.565399 151.137573,297.565399 
	C151.137573,285.862457 151.137573,274.776184 151.137573,262.996979 
	C156.649384,262.996979 162.075699,262.996979 168.001740,262.996979 
z"/>
<path fill="#615DCE" opacity="1.000000" stroke="none" 
	d="
M171.993011,206.433701 
	C179.944107,206.909103 187.520142,206.707733 194.817413,208.036880 
	C203.298706,209.581711 207.157089,214.868225 207.234055,222.555344 
	C207.313217,230.462357 203.232468,235.808411 194.942841,237.864883 
	C191.269058,238.776260 187.385513,239.137558 183.588257,239.199387 
	C172.949844,239.372574 162.306778,239.259705 151.279724,239.259705 
	C151.279724,228.375870 151.279724,217.810318 151.279724,206.433655 
	C157.980667,206.433655 164.737686,206.433655 171.993011,206.433701 
z"/>
</svg>