<svg version="1.1" id="Layer_1" xmlns="http://www.w3.org/2000/svg" xmlns:xlink="http://www.w3.org/1999/xlink" x="0px" y="0px"
	 width="100%" viewBox="0 0 500 500" enable-background="new 0 0 500 500" xml:space="preserve">
<path fill="#5F5BCD" opacity="1.000000" stroke="none" 
	d="
M0.999993,484.000000 
	C1.000000,328.975922 1.000000,173.951843 1.313558,18.318621 
	C5.042031,8.611940 11.407566,2.935345 21.000000,1.000000 
	C174.024078,1.000000 327.048157,1.000000 480.904358,1.000500 
	C491.582794,3.334914 497.566376,9.802901 501.000000,19.000000 
	C501.000000,173.690750 501.000000,328.381500 500.680054,483.669800 
	C496.953522,493.370148 490.537354,498.990723 481.000000,501.000000 
	C327.975922,501.000000 174.951843,501.000000 21.095678,500.999512 
	C16.086796,498.736511 11.418015,497.050385 7.884450,494.034302 
	C4.905253,491.491333 3.244391,487.403839 0.999993,484.000000 
M165.997543,210.337555 
	C177.721848,203.682617 190.176544,204.879669 202.428329,207.755371 
	C210.242737,209.589523 217.687943,212.996735 225.612839,215.810181 
	C228.779648,207.995285 231.996033,200.058044 235.279160,191.956116 
	C218.079590,181.984161 199.944382,179.015732 180.965424,179.761169 
	C168.272522,180.259720 156.154480,182.887421 145.473022,190.098633 
	C131.526932,199.513855 126.032028,212.944870 128.084152,229.391144 
	C129.975464,244.548660 139.850266,253.309616 153.420395,258.018494 
	C163.767685,261.609039 174.575409,263.850037 185.059021,267.078735 
	C191.368439,269.021942 197.914429,270.923676 203.519226,274.250610 
	C211.139420,278.773804 210.909149,288.190063 203.589218,293.291687 
	C201.069672,295.047668 197.945969,296.678711 194.983154,296.913391 
	C187.067062,297.540405 179.017609,298.117981 171.150970,297.362793 
	C158.429337,296.141541 146.791885,291.199371 135.781158,283.847870 
	C131.999634,292.241760 128.420456,300.186523 124.813362,308.193237 
	C126.517731,309.379150 127.690102,310.307312 128.966812,311.058014 
	C131.117035,312.322357 133.264282,313.627777 135.532928,314.649017 
	C155.340729,323.565460 176.047012,326.200928 197.502823,323.273224 
	C208.254745,321.806122 218.049194,318.008148 226.758316,311.377258 
	C245.376205,297.202087 250.239120,260.168365 217.631821,247.263702 
	C212.232559,245.126907 206.594604,243.559601 201.004318,241.946198 
	C190.464432,238.904297 179.686340,236.566162 169.364166,232.924011 
	C158.057831,228.934616 156.601562,219.116165 165.997543,210.337555 
M343.556030,208.459320 
	C356.814514,208.459320 370.073029,208.459320 383.316986,208.459320 
	C383.316986,199.170944 383.316986,190.745819 383.316986,182.200104 
	C342.662628,182.200104 302.374603,182.200104 261.870880,182.200104 
	C261.870880,190.951172 261.870880,199.492813 261.870880,208.541443 
	C276.702759,208.541443 291.131805,208.541443 306.255310,208.541443 
	C306.255310,246.590317 306.255310,284.134613 306.255310,321.568542 
	C317.516602,321.568542 328.069000,321.568542 338.871490,321.568542 
	C338.871490,319.145111 338.871490,317.157593 338.871490,315.170044 
	C338.871674,281.338501 338.870514,247.506958 338.874573,213.675415 
	C338.874908,211.078613 338.163330,207.950409 343.556030,208.459320 
z"/>
<path fill="#FAFAFD" opacity="1.000000" stroke="none" 
	d="
M501.000000,18.530293 
	C497.566376,9.802901 491.582794,3.334914 481.368256,1.000500 
	C487.588562,1.000000 494.177094,1.000000 501.000000,1.000000 
	C501.000000,6.684732 501.000000,12.372658 501.000000,18.530293 
z"/>
<path fill="#FAFAFD" opacity="1.000000" stroke="none" 
	d="
M481.469055,501.000000 
	C490.537354,498.990723 496.953522,493.370148 500.680054,484.133698 
	C501.000000,489.598663 501.000000,495.197296 501.000000,501.000000 
	C494.647064,501.000000 488.292572,501.000000 481.469055,501.000000 
z"/>
<path fill="#FAFAFD" opacity="1.000000" stroke="none" 
	d="
M20.530956,1.000000 
	C11.407566,2.935345 5.042031,8.611940 1.313558,17.854736 
	C1.000000,12.401347 1.000000,6.802694 1.000000,1.000000 
	C7.352935,1.000000 13.707425,1.000000 20.530956,1.000000 
z"/>
<path fill="#FAFAFD" opacity="1.000000" stroke="none" 
	d="
M0.999993,484.470459 
	C3.244391,487.403839 4.905253,491.491333 7.884450,494.034302 
	C11.418015,497.050385 16.086796,498.736511 20.631794,500.999512 
	C14.413866,501.000000 7.827733,501.000000 1.000000,501.000000 
	C1.000000,495.649384 1.000000,490.295135 0.999993,484.470459 
z"/>
<path fill="#FDFDFF" opacity="1.000000" stroke="none" 
	d="
M165.705811,210.573212 
	C156.601562,219.116165 158.057831,228.934616 169.364166,232.924011 
	C179.686340,236.566162 190.464432,238.904297 201.004318,241.946198 
	C206.594604,243.559601 212.232559,245.126907 217.631821,247.263702 
	C250.239120,260.168365 245.376205,297.202087 226.758316,311.377258 
	C218.049194,318.008148 208.254745,321.806122 197.502823,323.273224 
	C176.047012,326.200928 155.340729,323.565460 135.532928,314.649017 
	C133.264282,313.627777 131.117035,312.322357 128.966812,311.058014 
	C127.690102,310.307312 126.517731,309.379150 124.813362,308.193237 
	C128.420456,300.186523 131.999634,292.241760 135.781158,283.847870 
	C146.791885,291.199371 158.429337,296.141541 171.150970,297.362793 
	C179.017609,298.117981 187.067062,297.540405 194.983154,296.913391 
	C197.945969,296.678711 201.069672,295.047668 203.589218,293.291687 
	C210.909149,288.190063 211.139420,278.773804 203.519226,274.250610 
	C197.914429,270.923676 191.368439,269.021942 185.059021,267.078735 
	C174.575409,263.850037 163.767685,261.609039 153.420395,258.018494 
	C139.850266,253.309616 129.975464,244.548660 128.084152,229.391144 
	C126.032028,212.944870 131.526932,199.513855 145.473022,190.098633 
	C156.154480,182.887421 168.272522,180.259720 180.965424,179.761169 
	C199.944382,179.015732 218.079590,181.984161 235.279160,191.956116 
	C231.996033,200.058044 228.779648,207.995285 225.612839,215.810181 
	C217.687943,212.996735 210.242737,209.589523 202.428329,207.755371 
	C190.176544,204.879669 177.721848,203.682617 165.705811,210.573212 
z"/>
<path fill="#FDFDFE" opacity="1.000000" stroke="none" 
	d="
M343.062500,208.462570 
	C338.163330,207.950409 338.874908,211.078613 338.874573,213.675415 
	C338.870514,247.506958 338.871674,281.338501 338.871490,315.170044 
	C338.871490,317.157593 338.871490,319.145111 338.871490,321.568542 
	C328.069000,321.568542 317.516602,321.568542 306.255310,321.568542 
	C306.255310,284.134613 306.255310,246.590317 306.255310,208.541443 
	C291.131805,208.541443 276.702759,208.541443 261.870880,208.541443 
	C261.870880,199.492813 261.870880,190.951172 261.870880,182.200104 
	C302.374603,182.200104 342.662628,182.200104 383.316986,182.200104 
	C383.316986,190.745819 383.316986,199.170944 383.316986,208.459320 
	C370.073029,208.459320 356.814514,208.459320 343.062500,208.462570 
z"/>
</svg>