<svg xmlns="http://www.w3.org/2000/svg" version="1.0" viewBox="0 0 1600 1600" width="72" height="72"><path d="M769 537.6c-3.6.2-19.1 1.3-34.5 2.5-23.6 1.8-32.6 2-57.5 1.5-99.7-2.1-91.7-2.1-92.4.2-.4 1.1-.4 3.1-.1 4.5.6 2.3 1.1 2.4 13.8 3.5 28.5 2.6 38.3 8.3 43.7 25.8 4 13.2 4.1 19.7 3.8 233.4-.4 193.5-.5 205.9-2.2 212.9-4.9 20.3-14.6 28.3-37.8 31-5.1.6-12.2 1.2-15.8 1.4l-6.5.2v9H602c10.2 0 43-.2 73-.4 48.9-.4 57.8-.2 86.5 1.8 37.3 2.7 72.4 2.5 90.5-.4 45.5-7.2 86.1-26.9 113.5-55 20-20.5 33.5-45.4 38.6-71 1.8-9.2 1.9-44.7.1-53-12.9-59.7-63.1-101.3-137.4-113.8l-13.7-2.3 10.2-4.3c44-18.8 74-48.2 86.1-84.3 7.9-23.5 7.4-51.8-1.3-74.3-13.9-36-52.3-59.2-110.6-67-11.6-1.5-53.9-2.7-68.5-1.9zm29.1 18.9c15.9 2.4 28 7.8 38.9 17.3 5.9 5.1 14.8 18.3 18.3 26.9 10.2 25.1 11.5 64.2 3.3 96.6-7.9 31.2-27.1 56-50.8 65.8-12.8 5.3-19.9 6.2-44.8 6-12.3-.1-22.8-.5-23.3-1-1.3-1.3-.2-174.4 1.2-181.3 1.8-9 5-16.7 8.8-20.9 8.5-9.4 26-12.8 48.4-9.4zm17.7 238.3c31.5 6.9 52.8 20.7 68.7 44.7 16.2 24.6 23.5 53 23.5 91.7 0 29.3-3 45.6-11.9 64.3-8.7 18.2-20.4 30.1-38.6 39-18 8.7-33 11.7-59.5 11.7-31.8 0-45.8-4.9-52.6-18.5-5.9-11.5-5.7-8.5-6.1-125.9l-.4-107.7 2.3-.6c4.2-.9 17-1.2 41.3-.9 19.5.2 25.7.6 33.3 2.2z"/></svg>