<?xml version="1.0" standalone="no"?>
<!DOCTYPE svg PUBLIC "-//W3C//DTD SVG 20010904//EN"
 "http://www.w3.org/TR/2001/REC-SVG-20010904/DTD/svg10.dtd">
<svg version="1.0" xmlns="http://www.w3.org/2000/svg"
 width="1600.000000pt" height="1600.000000pt" viewBox="0 0 1600.000000 1600.000000"
 preserveAspectRatio="xMidYMid meet">
<metadata>
Created by potrace 1.16, written by Peter Selinger 2001-2019
</metadata>
<g transform="translate(0.000000,1600.000000) scale(0.100000,-0.100000)"
fill="#000000" stroke="none">
<path d="M7690 10624 c-36 -2 -191 -13 -345 -25 -236 -18 -326 -20 -575 -15
-997 21 -917 21 -924 -2 -4 -11 -4 -31 -1 -45 6 -23 11 -24 138 -35 285 -26
383 -83 437 -258 40 -132 41 -197 38 -2334 -4 -1935 -5 -2059 -22 -2129 -49
-203 -146 -283 -378 -310 -51 -6 -122 -12 -158 -14 l-65 -2 0 -45 0 -45 185 0
c102 0 430 2 730 4 489 4 578 2 865 -18 373 -27 724 -25 905 4 455 72 861 269
1135 550 200 205 335 454 386 710 18 92 19 447 1 530 -129 597 -631 1013
-1374 1138 l-137 23 102 43 c440 188 740 482 861 843 79 235 74 518 -13 743
-139 360 -523 592 -1106 670 -116 15 -539 27 -685 19z m291 -189 c159 -24 280
-78 389 -173 59 -51 148 -183 183 -269 102 -251 115 -642 33 -966 -79 -312
-271 -560 -508 -658 -128 -53 -199 -62 -448 -60 -123 1 -228 5 -233 10 -13 13
-2 1744 12 1813 18 90 50 167 88 209 85 94 260 128 484 94z m177 -2383 c315
-69 528 -207 687 -447 162 -246 235 -530 235 -917 0 -293 -30 -456 -119 -643
-87 -182 -204 -301 -386 -390 -180 -87 -330 -117 -595 -117 -318 0 -458 49
-526 185 -59 115 -57 85 -61 1259 l-4 1077 23 6 c42 9 170 12 413 9 195 -2
257 -6 333 -22z"/>
</g>
</svg>
