<svg version="1.1" id="Layer_1" xmlns="http://www.w3.org/2000/svg" xmlns:xlink="http://www.w3.org/1999/xlink" x="0px" y="0px"
	 width="100%" viewBox="0 0 500 500" enable-background="new 0 0 500 500" xml:space="preserve">
<path fill="#5F5BCD" opacity="1.000000" stroke="none" 
	d="
M0.999999,484.000000 
	C1.000000,328.975922 1.000000,173.951843 1.313564,18.318514 
	C5.042640,8.612453 11.406962,2.934525 21.000000,1.000000 
	C174.024078,1.000000 327.048157,1.000000 480.904480,1.000500 
	C491.582855,3.335008 497.566803,9.802550 501.000000,19.000000 
	C501.000000,173.690750 501.000000,328.381500 500.680054,483.669922 
	C496.953796,493.370667 490.537415,498.990936 481.000000,501.000000 
	C327.975922,501.000000 174.951843,501.000000 21.095509,500.999512 
	C16.086332,498.736603 11.417327,497.050720 7.883775,494.034576 
	C4.904669,491.491638 3.244166,487.403931 0.999999,484.000000 
M464.495880,230.728806 
	C463.881531,214.733841 457.505615,201.809570 444.098480,192.694931 
	C436.100494,187.257645 427.177643,183.453354 417.631958,183.143204 
	C393.194885,182.349182 368.729980,182.411713 344.275940,182.154739 
	C344.004181,182.151871 343.729126,182.457306 343.393768,182.655334 
	C343.393768,228.975998 343.393768,275.319580 343.393768,321.755188 
	C354.172241,321.755188 364.594757,321.755188 375.742767,321.755188 
	C375.742767,308.979797 375.742767,296.433655 375.742767,283.454010 
	C378.440918,283.454010 380.413605,283.479218 382.385529,283.449799 
	C392.871002,283.293335 403.386261,283.571838 413.836029,282.873535 
	C445.014404,280.790100 464.201630,261.199158 464.495880,230.728806 
M290.700897,187.757706 
	C281.377350,183.738937 271.576080,182.064560 261.488922,182.029572 
	C242.156006,181.962524 222.822723,181.996796 203.489609,182.011749 
	C202.051010,182.012863 200.612564,182.195633 199.133255,182.296738 
	C199.133255,228.960876 199.133255,275.220154 199.133255,321.581604 
	C209.931747,321.581604 220.455658,321.581604 231.228958,321.581604 
	C231.228958,310.503754 231.469986,299.836029 231.118240,289.187897 
	C230.963013,284.488861 232.507095,283.382996 237.014069,283.330261 
	C250.154480,283.176483 263.432526,283.523926 276.393799,281.752167 
	C300.616058,278.441101 316.935181,262.242828 319.819946,240.601471 
	C322.983276,216.870911 313.007965,198.413559 290.700897,187.757706 
M86.454689,188.884888 
	C66.795135,233.025497 47.135578,277.166107 27.168667,321.996796 
	C38.142231,321.996796 48.107571,322.108704 58.063744,321.857361 
	C59.329620,321.825409 61.106522,320.140381 61.695305,318.802521 
	C65.043999,311.193329 68.192299,303.491516 71.212837,295.744843 
	C72.246918,293.092773 73.528076,291.894745 76.631989,291.921509 
	C95.781395,292.086426 114.933350,292.066101 134.083282,291.935791 
	C136.871292,291.916870 138.181458,292.798950 139.184769,295.370331 
	C142.267197,303.270325 145.534851,311.103210 148.977173,318.852600 
	C149.565704,320.177460 151.346741,321.831329 152.611771,321.861328 
	C162.894974,322.105164 173.186493,321.998413 183.616348,321.998413 
	C183.513702,321.149139 183.568695,320.628052 183.383957,320.213928 
	C163.189102,274.949524 142.996567,229.683990 122.654877,184.485596 
	C122.112999,183.281555 119.962563,182.153656 118.526901,182.108246 
	C111.040573,181.871490 103.508400,182.434265 96.060593,181.848709 
	C90.740730,181.430450 88.012306,183.340302 86.454689,188.884888 
z"/>
<path fill="#FAFAFD" opacity="1.000000" stroke="none" 
	d="
M501.000000,18.530293 
	C497.566803,9.802550 491.582855,3.335008 481.368347,1.000500 
	C487.588562,1.000000 494.177094,1.000000 501.000000,1.000000 
	C501.000000,6.684732 501.000000,12.372658 501.000000,18.530293 
z"/>
<path fill="#FAFAFD" opacity="1.000000" stroke="none" 
	d="
M20.530956,1.000000 
	C11.406962,2.934525 5.042640,8.612453 1.313564,17.854630 
	C1.000000,12.401347 1.000000,6.802694 1.000000,1.000000 
	C7.352935,1.000000 13.707425,1.000000 20.530956,1.000000 
z"/>
<path fill="#FAFAFD" opacity="1.000000" stroke="none" 
	d="
M0.999999,484.470459 
	C3.244166,487.403931 4.904669,491.491638 7.883775,494.034576 
	C11.417327,497.050720 16.086332,498.736603 20.631622,500.999512 
	C14.413866,501.000000 7.827733,501.000000 1.000000,501.000000 
	C1.000000,495.649384 1.000000,490.295135 0.999999,484.470459 
z"/>
<path fill="#FAFAFD" opacity="1.000000" stroke="none" 
	d="
M481.469055,501.000000 
	C490.537415,498.990936 496.953796,493.370667 500.680054,484.133789 
	C501.000000,489.598663 501.000000,495.197296 501.000000,501.000000 
	C494.647064,501.000000 488.292572,501.000000 481.469055,501.000000 
z"/>
<path fill="#FEFEFF" opacity="1.000000" stroke="none" 
	d="
M464.517517,231.173248 
	C464.201630,261.199158 445.014404,280.790100 413.836029,282.873535 
	C403.386261,283.571838 392.871002,283.293335 382.385529,283.449799 
	C380.413605,283.479218 378.440918,283.454010 375.742767,283.454010 
	C375.742767,296.433655 375.742767,308.979797 375.742767,321.755188 
	C364.594757,321.755188 354.172241,321.755188 343.393768,321.755188 
	C343.393768,275.319580 343.393768,228.975998 343.393768,182.655334 
	C343.729126,182.457306 344.004181,182.151871 344.275940,182.154739 
	C368.729980,182.411713 393.194885,182.349182 417.631958,183.143204 
	C427.177643,183.453354 436.100494,187.257645 444.098480,192.694931 
	C457.505615,201.809570 463.881531,214.733841 464.517517,231.173248 
M422.658783,213.740326 
	C419.789062,212.459381 416.993225,210.298782 414.036743,210.050385 
	C401.498627,208.996872 388.912811,208.511093 375.988739,207.798279 
	C375.988739,224.871155 375.988739,240.727798 375.988739,256.055939 
	C388.146790,256.055939 399.972168,256.742279 411.674408,255.836746 
	C420.879456,255.124451 428.132965,249.899048 430.553070,240.417587 
	C433.085449,230.496216 431.906738,221.174927 422.658783,213.740326 
z"/>
<path fill="#FEFEFF" opacity="1.000000" stroke="none" 
	d="
M291.054688,187.894684 
	C313.007965,198.413559 322.983276,216.870911 319.819946,240.601471 
	C316.935181,262.242828 300.616058,278.441101 276.393799,281.752167 
	C263.432526,283.523926 250.154480,283.176483 237.014069,283.330261 
	C232.507095,283.382996 230.963013,284.488861 231.118240,289.187897 
	C231.469986,299.836029 231.228958,310.503754 231.228958,321.581604 
	C220.455658,321.581604 209.931747,321.581604 199.133255,321.581604 
	C199.133255,275.220154 199.133255,228.960876 199.133255,182.296738 
	C200.612564,182.195633 202.051010,182.012863 203.489609,182.011749 
	C222.822723,181.996796 242.156006,181.962524 261.488922,182.029572 
	C271.576080,182.064560 281.377350,183.738937 291.054688,187.894684 
M231.218399,224.504303 
	C231.218399,235.253204 231.218399,246.002090 231.218399,256.979095 
	C241.060532,256.979095 250.056564,257.170898 259.038055,256.893280 
	C263.155548,256.765991 267.370850,256.150360 271.322021,255.000809 
	C281.852600,251.937119 287.236084,244.249756 287.291534,232.992920 
	C287.348663,221.393738 282.039581,213.386642 271.397156,210.393158 
	C258.357330,206.725342 244.999008,209.004684 231.218414,208.371582 
	C231.218414,213.924149 231.218414,218.715790 231.218399,224.504303 
z"/>
<path fill="#FEFEFF" opacity="1.000000" stroke="none" 
	d="
M86.629837,188.542725 
	C88.012306,183.340302 90.740730,181.430450 96.060593,181.848709 
	C103.508400,182.434265 111.040573,181.871490 118.526901,182.108246 
	C119.962563,182.153656 122.112999,183.281555 122.654877,184.485596 
	C142.996567,229.683990 163.189102,274.949524 183.383957,320.213928 
	C183.568695,320.628052 183.513702,321.149139 183.616348,321.998413 
	C173.186493,321.998413 162.894974,322.105164 152.611771,321.861328 
	C151.346741,321.831329 149.565704,320.177460 148.977173,318.852600 
	C145.534851,311.103210 142.267197,303.270325 139.184769,295.370331 
	C138.181458,292.798950 136.871292,291.916870 134.083282,291.935791 
	C114.933350,292.066101 95.781395,292.086426 76.631989,291.921509 
	C73.528076,291.894745 72.246918,293.092773 71.212837,295.744843 
	C68.192299,303.491516 65.043999,311.193329 61.695305,318.802521 
	C61.106522,320.140381 59.329620,321.825409 58.063744,321.857361 
	C48.107571,322.108704 38.142231,321.996796 27.168667,321.996796 
	C47.135578,277.166107 66.795135,233.025497 86.629837,188.542725 
M99.565987,228.057281 
	C94.258507,240.880692 88.951035,253.704102 83.439766,267.019897 
	C98.450256,267.019897 112.536919,267.019897 127.359039,267.019897 
	C120.043030,249.332504 112.924133,232.121643 105.411758,213.959518 
	C103.285034,219.095581 101.576126,223.222626 99.565987,228.057281 
z"/>
<path fill="#605DCD" opacity="1.000000" stroke="none" 
	d="
M422.961121,213.943146 
	C431.906738,221.174927 433.085449,230.496216 430.553070,240.417587 
	C428.132965,249.899048 420.879456,255.124451 411.674408,255.836746 
	C399.972168,256.742279 388.146790,256.055939 375.988739,256.055939 
	C375.988739,240.727798 375.988739,224.871155 375.988739,207.798279 
	C388.912811,208.511093 401.498627,208.996872 414.036743,210.050385 
	C416.993225,210.298782 419.789062,212.459381 422.961121,213.943146 
z"/>
<path fill="#615DCE" opacity="1.000000" stroke="none" 
	d="
M231.218414,224.005859 
	C231.218414,218.715790 231.218414,213.924149 231.218414,208.371582 
	C244.999008,209.004684 258.357330,206.725342 271.397156,210.393158 
	C282.039581,213.386642 287.348663,221.393738 287.291534,232.992920 
	C287.236084,244.249756 281.852600,251.937119 271.322021,255.000809 
	C267.370850,256.150360 263.155548,256.765991 259.038055,256.893280 
	C250.056564,257.170898 241.060532,256.979095 231.218399,256.979095 
	C231.218399,246.002090 231.218399,235.253204 231.218414,224.005859 
z"/>
<path fill="#615DCE" opacity="1.000000" stroke="none" 
	d="
M99.716599,227.703461 
	C101.576126,223.222626 103.285034,219.095581 105.411758,213.959518 
	C112.924133,232.121643 120.043030,249.332504 127.359039,267.019897 
	C112.536919,267.019897 98.450256,267.019897 83.439766,267.019897 
	C88.951035,253.704102 94.258507,240.880692 99.716599,227.703461 
z"/>
</svg>