<svg version="1.1" id="Layer_1" xmlns="http://www.w3.org/2000/svg" xmlns:xlink="http://www.w3.org/1999/xlink" x="0px" y="0px"
	 width="100%" viewBox="0 0 500 500" enable-background="new 0 0 500 500" xml:space="preserve">
<path fill="#5F5BCD" opacity="1.000000" stroke="none" 
	d="
M1.000000,490.000000 
	C1.000000,330.975922 1.000000,171.951843 1.276807,12.275293 
	C5.431665,5.598427 11.179479,2.468823 18.000000,1.000000 
	C172.024078,1.000000 326.048157,1.000000 480.904816,1.000500 
	C491.585968,3.332319 497.493439,9.881430 501.000000,19.000000 
	C501.000000,173.690750 501.000000,328.381500 500.677307,483.664185 
	C497.377777,492.747894 491.103516,497.821930 483.000000,501.000000 
	C328.309265,501.000000 173.618515,501.000000 18.094116,500.999512 
	C10.557554,499.229034 5.095289,495.624969 1.000000,490.000000 
M190.773911,179.883713 
	C182.974579,180.266922 174.991287,179.712845 167.408829,181.201050 
	C139.575226,186.663940 119.408798,202.204391 111.204964,229.835541 
	C102.906670,257.784790 108.014069,283.735107 129.855820,304.157043 
	C151.972549,324.836121 178.757202,328.321564 207.305573,321.208740 
	C220.876602,317.827545 232.227966,310.554657 241.416031,299.358765 
	C234.359421,292.852936 227.573776,286.596924 220.790314,280.342926 
	C198.519257,304.783142 166.866486,298.156281 153.223236,284.355499 
	C137.144470,268.091034 136.241409,238.555374 151.704895,221.361435 
	C159.835602,212.320877 170.299759,208.082855 182.227737,207.341904 
	C197.504425,206.392929 210.218079,211.958832 220.650269,223.608261 
	C227.704483,217.091583 234.482330,210.830215 241.210510,204.614746 
	C230.823853,190.725647 211.492554,181.218536 190.773911,179.883713 
M273.586304,182.000061 
	C271.476837,182.000061 269.367371,182.000061 267.131165,182.000061 
	C267.131165,191.029495 267.131165,199.438644 267.131165,208.532990 
	C281.976105,208.532990 296.524475,208.532990 311.597351,208.532990 
	C311.597351,246.628799 311.597351,284.040344 311.597351,321.619629 
	C322.676453,321.619629 333.211273,321.619629 344.155945,321.619629 
	C344.155945,283.818268 344.155945,246.395370 344.155945,208.382462 
	C359.144043,208.382462 373.727386,208.382462 388.462463,208.382462 
	C388.462463,199.263901 388.462463,190.744965 388.462463,182.000046 
	C350.210114,182.000046 312.390137,182.000046 273.586304,182.000061 
z"/>
<path fill="#FBFBFE" opacity="1.000000" stroke="none" 
	d="
M501.000000,18.530293 
	C497.493439,9.881430 491.585968,3.332319 481.368713,1.000500 
	C487.588562,1.000000 494.177094,1.000000 501.000000,1.000000 
	C501.000000,6.684732 501.000000,12.372658 501.000000,18.530293 
z"/>
<path fill="#FBFBFE" opacity="1.000000" stroke="none" 
	d="
M483.469727,501.000000 
	C491.103516,497.821930 497.377777,492.747894 500.677307,484.128052 
	C501.000000,489.594482 501.000000,495.188995 501.000000,501.000000 
	C495.314392,501.000000 489.626923,501.000000 483.469727,501.000000 
z"/>
<path fill="#F9F9FD" opacity="1.000000" stroke="none" 
	d="
M17.529547,1.000000 
	C11.179479,2.468823 5.431665,5.598427 1.276807,11.811410 
	C1.000000,8.392120 1.000000,4.784241 1.000000,1.000000 
	C6.352168,1.000000 11.705630,1.000000 17.529547,1.000000 
z"/>
<path fill="#FAF9FD" opacity="1.000000" stroke="none" 
	d="
M1.000000,490.482971 
	C5.095289,495.624969 10.557554,499.229034 17.630232,500.999512 
	C12.429339,501.000000 6.858679,501.000000 1.000000,501.000000 
	C1.000000,497.660645 1.000000,494.313293 1.000000,490.482971 
z"/>
<path fill="#FEFEFF" opacity="1.000000" stroke="none" 
	d="
M191.223663,179.911865 
	C211.492554,181.218536 230.823853,190.725647 241.210510,204.614746 
	C234.482330,210.830215 227.704483,217.091583 220.650269,223.608261 
	C210.218079,211.958832 197.504425,206.392929 182.227737,207.341904 
	C170.299759,208.082855 159.835602,212.320877 151.704895,221.361435 
	C136.241409,238.555374 137.144470,268.091034 153.223236,284.355499 
	C166.866486,298.156281 198.519257,304.783142 220.790314,280.342926 
	C227.573776,286.596924 234.359421,292.852936 241.416031,299.358765 
	C232.227966,310.554657 220.876602,317.827545 207.305573,321.208740 
	C178.757202,328.321564 151.972549,324.836121 129.855820,304.157043 
	C108.014069,283.735107 102.906670,257.784790 111.204964,229.835541 
	C119.408798,202.204391 139.575226,186.663940 167.408829,181.201050 
	C174.991287,179.712845 182.974579,180.266922 191.223663,179.911865 
z"/>
<path fill="#FFFFFF" opacity="1.000000" stroke="none" 
	d="
M274.078247,182.000061 
	C312.390137,182.000046 350.210114,182.000046 388.462463,182.000046 
	C388.462463,190.744965 388.462463,199.263901 388.462463,208.382462 
	C373.727386,208.382462 359.144043,208.382462 344.155945,208.382462 
	C344.155945,246.395370 344.155945,283.818268 344.155945,321.619629 
	C333.211273,321.619629 322.676453,321.619629 311.597351,321.619629 
	C311.597351,284.040344 311.597351,246.628799 311.597351,208.532990 
	C296.524475,208.532990 281.976105,208.532990 267.131165,208.532990 
	C267.131165,199.438644 267.131165,191.029495 267.131165,182.000061 
	C269.367371,182.000061 271.476837,182.000061 274.078247,182.000061 
z"/>
</svg>