<svg version="1.1" id="Layer_1" xmlns="http://www.w3.org/2000/svg" xmlns:xlink="http://www.w3.org/1999/xlink" x="0px" y="0px"
	 width="100%" viewBox="0 0 500 500" enable-background="new 0 0 500 500" xml:space="preserve">
<path fill="#5F5BCD" opacity="1.000000" stroke="none" 
	d="
M1.000005,484.000000 
	C1.000000,328.975922 1.000000,173.951843 1.313550,18.318489 
	C5.042583,8.612362 11.406905,2.934438 21.000000,1.000000 
	C174.024078,1.000000 327.048157,1.000000 480.904480,1.000500 
	C491.582977,3.334931 497.566864,9.802496 501.000000,19.000000 
	C501.000000,173.690750 501.000000,328.381500 500.680054,483.669922 
	C496.953857,493.370758 490.537506,498.991028 481.000000,501.000000 
	C327.975922,501.000000 174.951843,501.000000 21.095512,500.999481 
	C16.086334,498.736603 11.417301,497.050751 7.883779,494.034607 
	C4.904625,491.491730 3.244170,487.403931 1.000005,484.000000 
M132.500366,322.002441 
	C151.498688,321.987213 170.526489,322.596771 189.483292,321.702026 
	C199.463898,321.230988 209.743210,319.311340 219.134705,315.945129 
	C233.506836,310.793732 240.937592,299.554321 240.983856,283.975861 
	C241.030151,268.389099 234.013794,257.271973 219.748734,250.822144 
	C218.757294,250.373871 217.785675,249.881790 216.411545,249.220917 
	C217.270218,248.437759 217.681931,247.955215 218.189194,247.615250 
	C230.323105,239.483185 235.475449,227.981537 233.689941,213.683762 
	C231.899597,199.347168 222.651398,190.671509 209.614609,186.472656 
	C201.801666,183.956284 193.364883,182.443604 185.164856,182.240356 
	C162.180695,181.670670 139.173874,182.010391 116.175987,182.014328 
	C115.086693,182.014526 113.997429,182.235825 112.828255,182.362823 
	C112.828255,229.007843 112.828255,275.281036 112.828255,322.002441 
	C119.232254,322.002441 125.366501,322.002441 132.500366,322.002441 
M388.204376,232.524811 
	C395.717377,212.980316 388.272308,194.594955 368.719391,187.352676 
	C360.304199,184.235733 350.962494,182.611725 341.967865,182.273514 
	C322.007721,181.522995 302.000946,182.012665 282.013184,181.997940 
	C278.045807,181.995010 274.078430,181.997528 269.847839,181.997528 
	C269.847839,228.829468 269.847839,275.228394 269.847839,321.688812 
	C270.783997,321.815460 271.434296,321.980652 272.084564,321.980286 
	C297.735352,321.965698 323.396301,322.335297 349.031189,321.682861 
	C357.526917,321.466644 366.261017,319.516785 374.348999,316.774994 
	C389.503174,311.637848 397.556549,300.166504 397.964905,285.468201 
	C398.426758,268.843964 391.427765,257.580292 376.311829,250.613846 
	C375.473206,250.227325 374.647491,249.812744 374.629822,249.804214 
	C379.145172,244.178802 383.536255,238.708176 388.204376,232.524811 
z"/>
<path fill="#FAFAFD" opacity="1.000000" stroke="none" 
	d="
M501.000000,18.530293 
	C497.566864,9.802496 491.582977,3.334931 481.368347,1.000500 
	C487.588562,1.000000 494.177094,1.000000 501.000000,1.000000 
	C501.000000,6.684732 501.000000,12.372658 501.000000,18.530293 
z"/>
<path fill="#FAFAFD" opacity="1.000000" stroke="none" 
	d="
M20.530956,1.000000 
	C11.406905,2.934438 5.042583,8.612362 1.313550,17.854607 
	C1.000000,12.401347 1.000000,6.802694 1.000000,1.000000 
	C7.352935,1.000000 13.707425,1.000000 20.530956,1.000000 
z"/>
<path fill="#FAFAFD" opacity="1.000000" stroke="none" 
	d="
M1.000005,484.470459 
	C3.244170,487.403931 4.904625,491.491730 7.883779,494.034607 
	C11.417301,497.050751 16.086334,498.736603 20.631630,500.999481 
	C14.413866,501.000000 7.827733,501.000000 1.000000,501.000000 
	C1.000000,495.649384 1.000000,490.295135 1.000005,484.470459 
z"/>
<path fill="#FAFAFD" opacity="1.000000" stroke="none" 
	d="
M481.469055,501.000000 
	C490.537506,498.991028 496.953857,493.370758 500.680054,484.133820 
	C501.000000,489.598663 501.000000,495.197296 501.000000,501.000000 
	C494.647064,501.000000 488.292572,501.000000 481.469055,501.000000 
z"/>
<path fill="#FEFEFF" opacity="1.000000" stroke="none" 
	d="
M132.000549,322.002441 
	C125.366501,322.002441 119.232254,322.002441 112.828255,322.002441 
	C112.828255,275.281036 112.828255,229.007843 112.828255,182.362823 
	C113.997429,182.235825 115.086693,182.014526 116.175987,182.014328 
	C139.173874,182.010391 162.180695,181.670670 185.164856,182.240356 
	C193.364883,182.443604 201.801666,183.956284 209.614609,186.472656 
	C222.651398,190.671509 231.899597,199.347168 233.689941,213.683762 
	C235.475449,227.981537 230.323105,239.483185 218.189194,247.615250 
	C217.681931,247.955215 217.270218,248.437759 216.411545,249.220917 
	C217.785675,249.881790 218.757294,250.373871 219.748734,250.822144 
	C234.013794,257.271973 241.030151,268.389099 240.983856,283.975861 
	C240.937592,299.554321 233.506836,310.793732 219.134705,315.945129 
	C209.743210,319.311340 199.463898,321.230988 189.483292,321.702026 
	C170.526489,322.596771 151.498688,321.987213 132.000549,322.002441 
M159.505310,262.996979 
	C154.747208,262.996979 149.989105,262.996979 145.137787,262.996979 
	C145.137787,274.776459 145.137787,285.862732 145.137787,297.113342 
	C160.141479,297.113342 174.901688,297.160034 189.660904,297.061127 
	C191.785019,297.046906 193.951080,296.496552 196.017960,295.912170 
	C204.908798,293.398285 208.844101,287.689606 208.166626,278.495667 
	C207.595718,270.747742 202.345917,265.059113 192.865616,264.128448 
	C182.144684,263.076019 171.296707,263.317932 159.505310,262.996979 
M192.788803,236.487259 
	C197.794724,234.024338 200.803024,230.189636 201.187744,224.471542 
	C201.866196,214.387711 196.093018,207.875626 184.414703,207.074036 
	C173.488510,206.324066 162.491547,206.600845 151.525558,206.438095 
	C149.434158,206.407059 147.341888,206.433655 145.251465,206.433655 
	C145.251465,217.768417 145.251465,228.321976 145.251465,239.236877 
	C156.720230,239.236877 167.839401,239.458405 178.942093,239.127228 
	C183.347061,238.995834 187.715485,237.638168 192.788803,236.487259 
z"/>
<path fill="#FEFEFF" opacity="1.000000" stroke="none" 
	d="
M388.065857,232.881195 
	C383.536255,238.708176 379.145172,244.178802 374.629822,249.804214 
	C374.647491,249.812744 375.473206,250.227325 376.311829,250.613846 
	C391.427765,257.580292 398.426758,268.843964 397.964905,285.468201 
	C397.556549,300.166504 389.503174,311.637848 374.348999,316.774994 
	C366.261017,319.516785 357.526917,321.466644 349.031189,321.682861 
	C323.396301,322.335297 297.735352,321.965698 272.084564,321.980286 
	C271.434296,321.980652 270.783997,321.815460 269.847839,321.688812 
	C269.847839,275.228394 269.847839,228.829468 269.847839,181.997528 
	C274.078430,181.997528 278.045807,181.995010 282.013184,181.997940 
	C302.000946,182.012665 322.007721,181.522995 341.967865,182.273514 
	C350.962494,182.611725 360.304199,184.235733 368.719391,187.352676 
	C388.272308,194.594955 395.717377,212.980316 388.065857,232.881195 
M321.500397,297.565491 
	C327.489563,297.559570 333.488708,297.763794 339.464691,297.480011 
	C344.089508,297.260406 348.811676,296.918793 353.267181,295.767120 
	C361.964783,293.518982 365.759949,287.699921 365.184357,278.716949 
	C364.693390,271.054077 359.691925,265.003204 350.578094,264.279480 
	C334.582581,263.009247 318.484039,263.035950 302.256348,262.513885 
	C302.256348,274.724670 302.256348,285.908752 302.256348,297.565430 
	C308.577087,297.565430 314.539001,297.565430 321.500397,297.565491 
M346.295532,207.952866 
	C331.631958,207.229385 316.968384,206.505890 302.247498,205.779587 
	C302.247498,217.761200 302.247498,228.313644 302.247498,239.276825 
	C310.549530,239.276825 318.504669,239.415085 326.452423,239.232193 
	C332.576569,239.091263 338.792389,239.113342 344.786102,238.045334 
	C353.184998,236.548752 357.573303,231.660934 358.155762,224.767151 
	C358.874359,216.262100 355.930084,211.846130 346.295532,207.952866 
z"/>
<path fill="#615DCE" opacity="1.000000" stroke="none" 
	d="
M160.004639,262.996979 
	C171.296707,263.317932 182.144684,263.076019 192.865616,264.128448 
	C202.345917,265.059113 207.595718,270.747742 208.166626,278.495667 
	C208.844101,287.689606 204.908798,293.398285 196.017960,295.912170 
	C193.951080,296.496552 191.785019,297.046906 189.660904,297.061127 
	C174.901688,297.160034 160.141479,297.113342 145.137787,297.113342 
	C145.137787,285.862732 145.137787,274.776459 145.137787,262.996979 
	C149.989105,262.996979 154.747208,262.996979 160.004639,262.996979 
z"/>
<path fill="#615DCE" opacity="1.000000" stroke="none" 
	d="
M192.444672,236.663040 
	C187.715485,237.638168 183.347061,238.995834 178.942093,239.127228 
	C167.839401,239.458405 156.720230,239.236877 145.251465,239.236877 
	C145.251465,228.321976 145.251465,217.768417 145.251465,206.433655 
	C147.341888,206.433655 149.434158,206.407059 151.525558,206.438095 
	C162.491547,206.600845 173.488510,206.324066 184.414703,207.074036 
	C196.093018,207.875626 201.866196,214.387711 201.187744,224.471542 
	C200.803024,230.189636 197.794724,234.024338 192.444672,236.663040 
z"/>
<path fill="#615DCE" opacity="1.000000" stroke="none" 
	d="
M321.000671,297.565460 
	C314.539001,297.565430 308.577087,297.565430 302.256348,297.565430 
	C302.256348,285.908752 302.256348,274.724670 302.256348,262.513885 
	C318.484039,263.035950 334.582581,263.009247 350.578094,264.279480 
	C359.691925,265.003204 364.693390,271.054077 365.184357,278.716949 
	C365.759949,287.699921 361.964783,293.518982 353.267181,295.767120 
	C348.811676,296.918793 344.089508,297.260406 339.464691,297.480011 
	C333.488708,297.763794 327.489563,297.559570 321.000671,297.565460 
z"/>
<path fill="#615DCE" opacity="1.000000" stroke="none" 
	d="
M346.684326,208.048767 
	C355.930084,211.846130 358.874359,216.262100 358.155762,224.767151 
	C357.573303,231.660934 353.184998,236.548752 344.786102,238.045334 
	C338.792389,239.113342 332.576569,239.091263 326.452423,239.232193 
	C318.504669,239.415085 310.549530,239.276825 302.247498,239.276825 
	C302.247498,228.313644 302.247498,217.761200 302.247498,205.779587 
	C316.968384,206.505890 331.631958,207.229385 346.684326,208.048767 
z"/>
</svg>