<svg version="1.1" id="Layer_1" xmlns="http://www.w3.org/2000/svg" xmlns:xlink="http://www.w3.org/1999/xlink" x="0px" y="0px"
	 width="100%" viewBox="0 0 500 500" enable-background="new 0 0 500 500" xml:space="preserve">
<path fill="#5F5BCD" opacity="1.000000" stroke="none" 
	d="
M21.999996,501.000000 
	C20.611111,501.000000 19.222221,501.000000 17.113007,500.812744 
	C9.908718,499.043762 4.951025,495.251038 1.000000,490.000000 
	C1.000000,330.975922 1.000000,171.951843 1.279586,12.279728 
	C5.144924,5.820410 10.793122,3.004508 17.000000,1.000000 
	C171.690750,1.000000 326.381500,1.000000 481.830261,1.202811 
	C492.329376,3.499150 497.492737,10.383064 501.000000,19.000000 
	C501.000000,173.690750 501.000000,328.381500 500.679840,483.669495 
	C497.199341,493.091675 490.834259,498.400421 482.000000,501.000000 
	C481.250000,501.000000 480.500000,501.000000 479.399475,500.653320 
	C478.085724,499.165802 477.169617,497.981018 476.152496,496.890381 
	C404.597504,420.162201 333.035156,343.440857 261.470001,266.722137 
	C258.094727,263.103821 254.688995,259.513885 250.956741,255.548721 
	C174.389343,337.632202 98.194672,419.316101 21.999996,501.000000 
M46.861660,150.499954 
	C46.861660,173.908569 46.861660,197.317169 46.861660,220.642181 
	C57.414558,220.642181 67.159241,220.642181 77.371826,220.642181 
	C77.371826,193.903427 77.371826,167.520737 77.371826,139.662994 
	C79.091278,142.197327 80.033569,143.466949 80.852753,144.811584 
	C92.202301,163.441162 103.678978,181.996109 114.759476,200.784607 
	C117.197754,204.919067 119.848114,206.149811 124.550499,206.409103 
	C130.932938,206.761032 134.243103,204.514908 137.364059,199.011810 
	C148.040573,180.186295 159.362656,161.726837 170.449875,143.134521 
	C171.318283,141.678268 172.274521,140.274353 173.189926,138.846115 
	C173.542953,138.986679 173.895966,139.127243 174.248993,139.267822 
	C174.248993,166.354889 174.248993,193.441971 174.248993,220.631409 
	C184.623596,220.631409 194.500473,220.631409 204.226349,220.631409 
	C204.226349,174.015274 204.226349,127.771866 204.226349,80.997795 
	C196.896164,80.997795 190.095551,81.261703 183.328293,80.900444 
	C179.159073,80.677879 176.849457,81.985176 174.689438,85.686478 
	C159.666519,111.429001 144.363434,137.008072 129.137543,162.632034 
	C128.245956,164.132523 127.244606,165.567795 125.992134,167.499512 
	C124.676331,165.436264 123.680817,163.948334 122.757629,162.416779 
	C107.197739,136.603470 91.667229,110.772377 76.043549,84.997749 
	C75.103355,83.446693 73.482765,81.257935 72.099442,81.198029 
	C63.839848,80.840355 55.556946,81.020973 46.861656,81.020973 
	C46.861656,104.243927 46.861656,126.871933 46.861660,150.499954 
M396.542389,196.070068 
	C382.562561,195.909195 369.831787,191.667770 357.954712,183.680557 
	C353.582275,192.163452 349.438538,200.202667 345.269043,208.291794 
	C346.794281,209.397110 347.679749,210.157898 348.672607,210.733276 
	C350.686920,211.900574 352.709045,213.075409 354.815826,214.058899 
	C372.980225,222.538345 392.130798,224.819641 411.856903,222.591003 
	C422.260345,221.415649 432.012512,218.002228 440.315521,211.395340 
	C454.138550,200.395996 458.917816,185.836624 456.057129,168.732300 
	C453.373688,152.687592 443.367554,142.867447 428.348724,137.661102 
	C417.460999,133.886810 406.146606,133.638962 394.807617,133.535507 
	C392.573090,133.515121 390.340149,133.323441 387.719147,133.191223 
	C388.499878,124.126068 389.222015,115.741333 389.981476,106.922882 
	C409.556305,106.922882 428.636322,106.922882 447.844849,106.922882 
	C447.844849,98.071686 447.844849,89.707649 447.844849,81.220993 
	C419.363647,81.220993 391.268402,81.220993 362.768219,81.220993 
	C360.394073,107.361763 358.036865,133.315887 355.622589,159.898376 
	C358.148224,159.898376 359.934387,159.895905 361.720581,159.898773 
	C373.213776,159.917236 384.717285,159.655350 396.195679,160.077011 
	C401.782776,160.282257 407.468536,161.256485 412.847839,162.796875 
	C419.738556,164.770081 423.617615,169.824799 423.956451,177.154587 
	C424.292908,184.433090 421.066986,190.126373 414.418976,192.641739 
	C409.103699,194.652847 403.157959,194.997772 396.542389,196.070068 
M222.020737,104.338608 
	C221.642883,107.839691 224.136368,107.425705 226.275757,107.428162 
	C237.775391,107.441383 249.275024,107.437119 260.774658,107.438782 
	C262.701202,107.439064 264.627777,107.438828 267.017761,107.438828 
	C267.017761,145.705353 267.017761,183.130585 267.017761,220.715271 
	C277.897369,220.715271 288.305481,220.715271 299.218140,220.715271 
	C299.218140,183.017517 299.218140,145.599060 299.218140,107.352356 
	C314.386169,107.352356 329.065735,107.352356 343.677917,107.352356 
	C343.677917,98.112137 343.677917,89.709473 343.677917,81.256668 
	C303.055573,81.256668 262.794952,81.256668 222.016144,81.256668 
	C222.016144,88.788956 222.016144,96.074860 222.020737,104.338608 
z"/>
<path fill="#BC9C23" opacity="1.000000" stroke="none" 
	d="
M22.468655,501.000000 
	C98.194672,419.316101 174.389343,337.632202 250.956741,255.548721 
	C254.688995,259.513885 258.094727,263.103821 261.470001,266.722137 
	C333.035156,343.440857 404.597504,420.162201 476.152496,496.890381 
	C477.169617,497.981018 478.085724,499.165802 479.024475,500.653320 
	C326.979095,501.000000 174.958206,501.000000 22.468655,501.000000 
M339.543854,417.741394 
	C341.287140,404.246185 335.389069,394.618469 322.770721,392.765289 
	C314.712891,391.581879 306.339966,392.543671 297.735657,392.543671 
	C297.735657,399.429535 297.735657,406.241882 297.735657,413.054260 
	C297.735657,419.961487 297.735657,426.868713 297.735657,433.919525 
	C305.660980,433.919525 312.826263,434.235260 319.952576,433.842834 
	C329.733612,433.304169 336.373505,427.790070 339.543854,417.741394 
M239.670975,392.625641 
	C237.893051,392.207733 236.134979,391.649323 234.333969,391.394745 
	C222.639175,389.741638 211.509567,396.875488 208.978745,407.581299 
	C206.231644,419.201996 212.305908,430.093170 223.493790,433.606964 
	C235.844269,437.485809 248.805984,431.822266 252.967667,420.728546 
	C257.207336,409.426880 252.223923,398.376678 239.670975,392.625641 
M196.622940,412.192505 
	C194.246719,411.957397 192.779221,412.588593 192.998276,415.424377 
	C193.177399,417.743225 193.226288,420.113983 192.928589,422.409271 
	C192.790573,423.473358 191.886612,425.021667 190.994934,425.308228 
	C185.836517,426.966003 180.786469,426.822754 176.411041,423.095612 
	C172.369919,419.653198 170.951599,413.830658 172.762634,408.481323 
	C174.559128,403.174957 178.368530,399.849030 183.850998,400.017242 
	C188.249100,400.152252 192.599548,401.840210 197.955139,403.063782 
	C198.848724,402.214203 200.716141,400.438782 202.568497,398.677673 
	C195.229309,390.629822 182.506317,388.904816 172.834427,394.289032 
	C163.977859,399.219360 159.874619,409.655426 163.062927,419.689301 
	C168.199326,435.853943 187.986847,438.429260 200.520447,430.352539 
	C201.225952,429.897858 201.903824,428.797394 201.924210,427.980804 
	C202.051727,422.872620 201.988586,417.759674 201.988586,412.418976 
	C200.115799,412.323395 198.817963,412.257141 196.622940,412.192505 
M272.532684,434.015289 
	C278.969391,434.015289 285.406067,434.015289 291.900452,434.015289 
	C291.900452,431.067352 291.900452,428.664124 291.900452,425.911255 
	C284.907745,425.911255 278.275909,425.911255 271.146545,425.911255 
	C271.146545,414.481384 271.146545,403.394836 271.146545,392.264038 
	C267.710083,392.264038 264.784180,392.264038 261.716187,392.264038 
	C261.716187,406.268188 261.716187,419.990387 261.716187,434.015289 
	C265.240051,434.015289 268.393219,434.015289 272.532684,434.015289 
z"/>
<path fill="#FAFAFD" opacity="1.000000" stroke="none" 
	d="
M501.000000,18.530293 
	C497.492737,10.383064 492.329376,3.499150 482.294128,1.202811 
	C488.257080,1.000000 494.514191,1.000000 501.000000,1.000000 
	C501.000000,6.684834 501.000000,12.372708 501.000000,18.530293 
z"/>
<path fill="#FAFAFD" opacity="1.000000" stroke="none" 
	d="
M482.469360,501.000000 
	C490.834259,498.400421 497.199341,493.091675 500.679840,484.133362 
	C501.000000,489.596619 501.000000,495.193268 501.000000,501.000000 
	C494.980713,501.000000 488.959747,501.000000 482.469360,501.000000 
z"/>
<path fill="#F9F9FD" opacity="1.000000" stroke="none" 
	d="
M16.528801,1.000000 
	C10.793122,3.004508 5.144924,5.820410 1.279586,11.815844 
	C1.000000,8.394546 1.000000,4.789090 1.000000,1.000000 
	C6.018224,1.000000 11.037913,1.000000 16.528801,1.000000 
z"/>
<path fill="#FAF9FD" opacity="1.000000" stroke="none" 
	d="
M1.000000,490.482971 
	C4.951025,495.251038 9.908718,499.043762 16.696339,500.812744 
	C11.760435,501.000000 6.520870,501.000000 1.000000,501.000000 
	C1.000000,497.660400 1.000000,494.313171 1.000000,490.482971 
z"/>
<path fill="#FEFEFF" opacity="1.000000" stroke="none" 
	d="
M46.861656,149.999939 
	C46.861656,126.871933 46.861656,104.243927 46.861656,81.020973 
	C55.556946,81.020973 63.839848,80.840355 72.099442,81.198029 
	C73.482765,81.257935 75.103355,83.446693 76.043549,84.997749 
	C91.667229,110.772377 107.197739,136.603470 122.757629,162.416779 
	C123.680817,163.948334 124.676331,165.436264 125.992134,167.499512 
	C127.244606,165.567795 128.245956,164.132523 129.137543,162.632034 
	C144.363434,137.008072 159.666519,111.429001 174.689438,85.686478 
	C176.849457,81.985176 179.159073,80.677879 183.328293,80.900444 
	C190.095551,81.261703 196.896164,80.997795 204.226349,80.997795 
	C204.226349,127.771866 204.226349,174.015274 204.226349,220.631409 
	C194.500473,220.631409 184.623596,220.631409 174.248993,220.631409 
	C174.248993,193.441971 174.248993,166.354889 174.248993,139.267822 
	C173.895966,139.127243 173.542953,138.986679 173.189926,138.846115 
	C172.274521,140.274353 171.318283,141.678268 170.449875,143.134521 
	C159.362656,161.726837 148.040573,180.186295 137.364059,199.011810 
	C134.243103,204.514908 130.932938,206.761032 124.550499,206.409103 
	C119.848114,206.149811 117.197754,204.919067 114.759476,200.784607 
	C103.678978,181.996109 92.202301,163.441162 80.852753,144.811584 
	C80.033569,143.466949 79.091278,142.197327 77.371826,139.662994 
	C77.371826,167.520737 77.371826,193.903427 77.371826,220.642181 
	C67.159241,220.642181 57.414558,220.642181 46.861660,220.642181 
	C46.861660,197.317169 46.861660,173.908569 46.861656,149.999939 
z"/>
<path fill="#FEFEFF" opacity="1.000000" stroke="none" 
	d="
M397.017212,196.076141 
	C403.157959,194.997772 409.103699,194.652847 414.418976,192.641739 
	C421.066986,190.126373 424.292908,184.433090 423.956451,177.154587 
	C423.617615,169.824799 419.738556,164.770081 412.847839,162.796875 
	C407.468536,161.256485 401.782776,160.282257 396.195679,160.077011 
	C384.717285,159.655350 373.213776,159.917236 361.720581,159.898773 
	C359.934387,159.895905 358.148224,159.898376 355.622589,159.898376 
	C358.036865,133.315887 360.394073,107.361763 362.768219,81.220993 
	C391.268402,81.220993 419.363647,81.220993 447.844849,81.220993 
	C447.844849,89.707649 447.844849,98.071686 447.844849,106.922882 
	C428.636322,106.922882 409.556305,106.922882 389.981476,106.922882 
	C389.222015,115.741333 388.499878,124.126068 387.719147,133.191223 
	C390.340149,133.323441 392.573090,133.515121 394.807617,133.535507 
	C406.146606,133.638962 417.460999,133.886810 428.348724,137.661102 
	C443.367554,142.867447 453.373688,152.687592 456.057129,168.732300 
	C458.917816,185.836624 454.138550,200.395996 440.315521,211.395340 
	C432.012512,218.002228 422.260345,221.415649 411.856903,222.591003 
	C392.130798,224.819641 372.980225,222.538345 354.815826,214.058899 
	C352.709045,213.075409 350.686920,211.900574 348.672607,210.733276 
	C347.679749,210.157898 346.794281,209.397110 345.269043,208.291794 
	C349.438538,200.202667 353.582275,192.163452 357.954712,183.680557 
	C369.831787,191.667770 382.562561,195.909195 397.017212,196.076141 
z"/>
<path fill="#FFFFFF" opacity="1.000000" stroke="none" 
	d="
M222.018433,103.849686 
	C222.016144,96.074860 222.016144,88.788956 222.016144,81.256668 
	C262.794952,81.256668 303.055573,81.256668 343.677917,81.256668 
	C343.677917,89.709473 343.677917,98.112137 343.677917,107.352356 
	C329.065735,107.352356 314.386169,107.352356 299.218140,107.352356 
	C299.218140,145.599060 299.218140,183.017517 299.218140,220.715271 
	C288.305481,220.715271 277.897369,220.715271 267.017761,220.715271 
	C267.017761,183.130585 267.017761,145.705353 267.017761,107.438828 
	C264.627777,107.438828 262.701202,107.439064 260.774658,107.438782 
	C249.275024,107.437119 237.775391,107.441383 226.275757,107.428162 
	C224.136368,107.425705 221.642883,107.839691 222.018433,103.849686 
z"/>
<path fill="#FDFDFA" opacity="1.000000" stroke="none" 
	d="
M339.428802,418.142944 
	C336.373505,427.790070 329.733612,433.304169 319.952576,433.842834 
	C312.826263,434.235260 305.660980,433.919525 297.735657,433.919525 
	C297.735657,426.868713 297.735657,419.961487 297.735657,413.054260 
	C297.735657,406.241882 297.735657,399.429535 297.735657,392.543671 
	C306.339966,392.543671 314.712891,391.581879 322.770721,392.765289 
	C335.389069,394.618469 341.287140,404.246185 339.428802,418.142944 
M307.546631,406.553223 
	C307.546631,412.845886 307.546631,419.138550 307.546631,425.819824 
	C315.282379,425.911438 322.985107,427.645020 327.966797,420.260712 
	C331.107391,415.605560 331.095825,410.279572 327.901703,405.649506 
	C322.855011,398.334076 315.182404,400.090027 307.546936,400.191284 
	C307.546936,402.288147 307.546936,403.929291 307.546631,406.553223 
z"/>
<path fill="#FDFCF8" opacity="1.000000" stroke="none" 
	d="
M240.041595,392.756897 
	C252.223923,398.376678 257.207336,409.426880 252.967667,420.728546 
	C248.805984,431.822266 235.844269,437.485809 223.493790,433.606964 
	C212.305908,430.093170 206.231644,419.201996 208.978745,407.581299 
	C211.509567,396.875488 222.639175,389.741638 234.333969,391.394745 
	C236.134979,391.649323 237.893051,392.207733 240.041595,392.756897 
M229.791473,426.189240 
	C238.604355,426.137573 243.630966,422.056183 244.203552,414.487244 
	C244.785339,406.796722 240.561691,400.908813 233.746704,399.910034 
	C226.068115,398.784668 220.090286,402.810059 218.565369,410.133026 
	C216.955856,417.862213 220.884750,423.903625 229.791473,426.189240 
z"/>
<path fill="#FDFCF7" opacity="1.000000" stroke="none" 
	d="
M197.071533,412.191711 
	C198.817963,412.257141 200.115799,412.323395 201.988586,412.418976 
	C201.988586,417.759674 202.051727,422.872620 201.924210,427.980804 
	C201.903824,428.797394 201.225952,429.897858 200.520447,430.352539 
	C187.986847,438.429260 168.199326,435.853943 163.062927,419.689301 
	C159.874619,409.655426 163.977859,399.219360 172.834427,394.289032 
	C182.506317,388.904816 195.229309,390.629822 202.568497,398.677673 
	C200.716141,400.438782 198.848724,402.214203 197.955139,403.063782 
	C192.599548,401.840210 188.249100,400.152252 183.850998,400.017242 
	C178.368530,399.849030 174.559128,403.174957 172.762634,408.481323 
	C170.951599,413.830658 172.369919,419.653198 176.411041,423.095612 
	C180.786469,426.822754 185.836517,426.966003 190.994934,425.308228 
	C191.886612,425.021667 192.790573,423.473358 192.928589,422.409271 
	C193.226288,420.113983 193.177399,417.743225 192.998276,415.424377 
	C192.779221,412.588593 194.246719,411.957397 197.071533,412.191711 
z"/>
<path fill="#FDFCF8" opacity="1.000000" stroke="none" 
	d="
M272.039520,434.015289 
	C268.393219,434.015289 265.240051,434.015289 261.716187,434.015289 
	C261.716187,419.990387 261.716187,406.268188 261.716187,392.264038 
	C264.784180,392.264038 267.710083,392.264038 271.146545,392.264038 
	C271.146545,403.394836 271.146545,414.481384 271.146545,425.911255 
	C278.275909,425.911255 284.907745,425.911255 291.900452,425.911255 
	C291.900452,428.664124 291.900452,431.067352 291.900452,434.015289 
	C285.406067,434.015289 278.969391,434.015289 272.039520,434.015289 
z"/>
<path fill="#BD9D24" opacity="1.000000" stroke="none" 
	d="
M307.546783,406.061829 
	C307.546936,403.929291 307.546936,402.288147 307.546936,400.191284 
	C315.182404,400.090027 322.855011,398.334076 327.901703,405.649506 
	C331.095825,410.279572 331.107391,415.605560 327.966797,420.260712 
	C322.985107,427.645020 315.282379,425.911438 307.546631,425.819824 
	C307.546631,419.138550 307.546631,412.845886 307.546783,406.061829 
z"/>
<path fill="#BD9E26" opacity="1.000000" stroke="none" 
	d="
M229.371246,426.146057 
	C220.884750,423.903625 216.955856,417.862213 218.565369,410.133026 
	C220.090286,402.810059 226.068115,398.784668 233.746704,399.910034 
	C240.561691,400.908813 244.785339,406.796722 244.203552,414.487244 
	C243.630966,422.056183 238.604355,426.137573 229.371246,426.146057 
z"/>
</svg>