<svg version="1.1" id="Layer_1" xmlns="http://www.w3.org/2000/svg" xmlns:xlink="http://www.w3.org/1999/xlink" x="0px" y="0px"
	 width="100%" viewBox="0 0 500 500" enable-background="new 0 0 500 500" xml:space="preserve">
<path fill="#5F5BCD" opacity="1.000000" stroke="none" 
	d="
M1.000000,490.000000 
	C1.000000,330.975922 1.000000,171.951843 1.285369,12.292403 
	C5.108158,5.780006 10.828560,3.063497 17.000000,1.000000 
	C171.690750,1.000000 326.381500,1.000000 481.800659,1.237532 
	C492.345978,3.459202 497.455017,10.405370 501.000000,19.000000 
	C501.000000,173.690750 501.000000,328.381500 500.678040,483.669556 
	C497.186615,493.079865 490.826782,498.393036 482.000000,501.000000 
	C481.250000,501.000000 480.500000,501.000000 479.428650,500.653839 
	C478.366272,499.413208 477.668884,498.477997 476.877960,497.630096 
	C405.174774,420.761139 333.464935,343.898376 261.753143,267.037445 
	C258.265564,263.299438 254.756866,259.581116 250.986633,255.564514 
	C248.706955,257.972290 246.766891,259.994843 244.855515,262.044159 
	C219.062439,289.698822 193.276947,317.360504 167.482483,345.013824 
	C119.983871,395.935425 72.477730,446.850006 25.002241,497.793152 
	C24.158869,498.698090 23.659735,499.923889 22.999996,501.000000 
	C21.285944,501.000000 19.571886,501.000000 17.157337,500.771667 
	C9.870653,499.131042 4.998450,495.205994 1.000000,490.000000 
M204.718475,180.500488 
	C204.718475,147.434418 204.718475,114.368355 204.718475,80.997673 
	C196.464401,80.997673 189.479034,81.215347 182.516815,80.908295 
	C178.889542,80.748322 176.892181,81.924309 175.043289,85.080231 
	C159.812866,111.077637 144.390976,136.962906 129.014023,162.874359 
	C128.144653,164.339325 127.159973,165.735855 125.967117,167.565948 
	C124.547203,165.295151 123.557381,163.761703 122.615906,162.199127 
	C107.065712,136.390274 91.537437,110.568153 75.934029,84.791512 
	C75.060898,83.349098 73.618240,81.243393 72.374298,81.196213 
	C63.961060,80.877129 55.529926,81.029678 47.134846,81.029678 
	C47.134846,127.995583 47.134846,174.248215 47.134846,220.599808 
	C57.260895,220.599808 67.122124,220.599808 77.492500,220.599808 
	C77.492500,193.738251 77.492500,167.276306 77.492500,139.563324 
	C79.174583,142.217224 80.167290,143.731628 81.108994,145.277115 
	C92.370209,163.758560 103.769371,182.158722 114.766899,200.795868 
	C117.210922,204.937653 119.885155,206.122620 124.570946,206.389832 
	C130.959869,206.754150 134.374176,204.568588 137.389191,198.993759 
	C143.798172,187.143433 151.042068,175.744629 157.943909,164.160873 
	C163.005814,155.665161 168.068024,147.169617 173.130112,138.674011 
	C173.469009,138.768555 173.807922,138.863113 174.146820,138.957657 
	C174.146820,166.153564 174.146820,193.349457 174.146820,220.687408 
	C184.586823,220.687408 194.476746,220.687408 204.721283,220.687408 
	C204.721283,207.417847 204.721283,194.459152 204.718475,180.500488 
M392.572968,223.169434 
	C397.901428,223.105774 403.252350,223.331085 408.553802,222.919662 
	C420.406403,221.999786 431.500000,218.572601 440.838806,210.971619 
	C454.362579,199.964401 458.927216,185.470032 456.036591,168.571106 
	C453.365875,152.957611 443.847961,142.761444 429.082031,138.116943 
	C421.256012,135.655319 412.845825,134.844391 404.628815,133.905975 
	C399.266235,133.293549 393.776947,133.790466 387.699493,133.790466 
	C388.521667,124.202942 389.249908,115.711174 390.014252,106.798187 
	C409.725891,106.798187 428.806671,106.798187 447.949097,106.798187 
	C447.949097,98.052933 447.949097,89.790466 447.949097,81.315414 
	C419.490417,81.315414 391.284180,81.315414 362.748322,81.315414 
	C360.367950,107.534355 358.013702,133.465561 355.610321,159.938049 
	C369.270844,159.938049 382.077209,159.625290 394.857056,160.072128 
	C401.095856,160.290268 407.442566,161.367233 413.454254,163.067368 
	C419.960815,164.907471 423.504974,169.974167 423.944733,176.822525 
	C424.380402,183.606659 421.736084,189.210098 415.570557,192.014740 
	C410.989502,194.098618 405.811249,195.581802 400.808960,195.894867 
	C385.408112,196.858704 371.206940,192.699570 357.964172,183.581131 
	C353.679443,191.939316 349.542297,200.009552 345.462585,207.967804 
	C354.189301,215.888885 373.212280,222.055115 392.572968,223.169434 
M285.492889,220.999420 
	C289.934479,220.999420 294.376038,220.999420 299.422180,220.999420 
	C299.422180,182.848923 299.422180,145.320343 299.422180,107.190819 
	C314.581116,107.190819 329.132538,107.190819 343.723938,107.190819 
	C343.723938,98.174316 343.723938,89.771431 343.723938,81.357208 
	C303.037994,81.357208 262.666138,81.357208 222.341187,81.357208 
	C222.341187,90.138115 222.341187,98.558502 222.341187,107.516739 
	C237.248154,107.516739 251.834244,107.516739 266.995117,107.516739 
	C266.995117,145.596512 266.995117,183.133835 266.995117,220.999420 
	C273.217255,220.999420 278.856964,220.999420 285.492889,220.999420 
z"/>
<path fill="#000000" opacity="1.000000" stroke="none" 
	d="
M23.468653,501.000000 
	C23.659735,499.923889 24.158869,498.698090 25.002241,497.793152 
	C72.477730,446.850006 119.983871,395.935425 167.482483,345.013824 
	C193.276947,317.360504 219.062439,289.698822 244.855515,262.044159 
	C246.766891,259.994843 248.706955,257.972290 250.986633,255.564514 
	C254.756866,259.581116 258.265564,263.299438 261.753143,267.037445 
	C333.464935,343.898376 405.174774,420.761139 476.877960,497.630096 
	C477.668884,498.477997 478.366272,499.413208 479.053650,500.653839 
	C327.312439,501.000000 175.624878,501.000000 23.468653,501.000000 
M268.346954,397.682159 
	C268.346954,409.629395 268.346954,421.576630 268.346954,433.714813 
	C276.689087,433.714813 284.703552,434.443481 292.530273,433.541901 
	C303.921631,432.229736 310.929382,423.654053 310.831696,412.821045 
	C310.732697,401.842255 303.195953,393.313263 291.684479,392.289398 
	C284.125000,391.617035 276.457275,392.162384 268.562775,392.162384 
	C268.484772,393.812653 268.415894,395.270294 268.346954,397.682159 
M210.491531,409.135468 
	C209.362396,408.859802 208.049271,408.859680 207.141037,408.253204 
	C205.004990,406.826965 201.376190,405.114288 201.373230,403.511963 
	C201.365814,399.503174 205.409058,398.967621 208.515305,399.228516 
	C212.559937,399.568268 216.532104,400.770721 220.867325,401.670807 
	C221.655350,399.717621 222.558334,397.479553 223.617508,394.854309 
	C214.828354,390.782501 206.423965,389.543335 197.842987,393.730743 
	C193.222015,395.985687 190.977890,399.986298 191.214615,405.105225 
	C191.450546,410.207001 194.534317,413.346680 199.158325,414.914886 
	C202.770691,416.139984 206.666260,416.635010 210.130844,418.151611 
	C212.211243,419.062256 213.705872,421.311127 215.463745,422.958588 
	C213.361649,424.256714 211.193420,426.735352 209.170380,426.622040 
	C203.999634,426.332489 198.893570,424.888245 193.129791,423.784912 
	C192.537384,425.109009 191.552887,427.309448 190.598557,429.442444 
	C198.044952,435.648438 212.448547,436.675446 219.873611,431.650391 
	C223.963043,428.882812 225.719299,425.020538 225.222595,420.069977 
	C224.761307,415.472321 221.787140,413.018524 217.925964,411.406738 
	C215.790131,410.515228 213.493515,410.008911 210.491531,409.135468 
M249.964676,431.285187 
	C249.964676,420.874359 249.964676,410.463531 249.964676,399.791779 
	C254.771561,399.791779 258.880493,399.791779 263.106628,399.791779 
	C263.106628,397.086182 263.106628,394.659210 263.106628,392.217834 
	C250.919586,392.217834 238.985260,392.217834 227.002960,392.217834 
	C227.002960,394.845917 227.002960,397.243347 227.002960,400.123230 
	C231.482407,400.123230 235.715561,400.123230 240.327271,400.123230 
	C240.327271,411.689301 240.327271,422.766815 240.327271,434.956940 
	C243.965195,433.931335 246.963013,433.086182 249.964676,431.285187 
z"/>
<path fill="#FAFAFD" opacity="1.000000" stroke="none" 
	d="
M501.000000,18.530293 
	C497.455017,10.405370 492.345978,3.459202 482.264526,1.237532 
	C488.257080,1.000000 494.514191,1.000000 501.000000,1.000000 
	C501.000000,6.684834 501.000000,12.372708 501.000000,18.530293 
z"/>
<path fill="#FAFAFD" opacity="1.000000" stroke="none" 
	d="
M482.469360,501.000000 
	C490.826782,498.393036 497.186615,493.079865 500.678040,484.133423 
	C501.000000,489.596619 501.000000,495.193268 501.000000,501.000000 
	C494.980713,501.000000 488.959747,501.000000 482.469360,501.000000 
z"/>
<path fill="#F9F9FD" opacity="1.000000" stroke="none" 
	d="
M16.528801,1.000000 
	C10.828560,3.063497 5.108158,5.780006 1.285369,11.828520 
	C1.000000,8.394546 1.000000,4.789090 1.000000,1.000000 
	C6.018224,1.000000 11.037913,1.000000 16.528801,1.000000 
z"/>
<path fill="#FAF9FD" opacity="1.000000" stroke="none" 
	d="
M1.000000,490.482971 
	C4.998450,495.205994 9.870653,499.131042 16.728424,500.771667 
	C11.760435,501.000000 6.520870,501.000000 1.000000,501.000000 
	C1.000000,497.660400 1.000000,494.313171 1.000000,490.482971 
z"/>
<path fill="#FEFEFF" opacity="1.000000" stroke="none" 
	d="
M204.719879,181.000488 
	C204.721283,194.459152 204.721283,207.417847 204.721283,220.687408 
	C194.476746,220.687408 184.586823,220.687408 174.146820,220.687408 
	C174.146820,193.349457 174.146820,166.153564 174.146820,138.957657 
	C173.807922,138.863113 173.469009,138.768555 173.130112,138.674011 
	C168.068024,147.169617 163.005814,155.665161 157.943909,164.160873 
	C151.042068,175.744629 143.798172,187.143433 137.389191,198.993759 
	C134.374176,204.568588 130.959869,206.754150 124.570946,206.389832 
	C119.885155,206.122620 117.210922,204.937653 114.766899,200.795868 
	C103.769371,182.158722 92.370209,163.758560 81.108994,145.277115 
	C80.167290,143.731628 79.174583,142.217224 77.492500,139.563324 
	C77.492500,167.276306 77.492500,193.738251 77.492500,220.599808 
	C67.122124,220.599808 57.260895,220.599808 47.134846,220.599808 
	C47.134846,174.248215 47.134846,127.995583 47.134846,81.029678 
	C55.529926,81.029678 63.961060,80.877129 72.374298,81.196213 
	C73.618240,81.243393 75.060898,83.349098 75.934029,84.791512 
	C91.537437,110.568153 107.065712,136.390274 122.615906,162.199127 
	C123.557381,163.761703 124.547203,165.295151 125.967117,167.565948 
	C127.159973,165.735855 128.144653,164.339325 129.014023,162.874359 
	C144.390976,136.962906 159.812866,111.077637 175.043289,85.080231 
	C176.892181,81.924309 178.889542,80.748322 182.516815,80.908295 
	C189.479034,81.215347 196.464401,80.997673 204.718475,80.997673 
	C204.718475,114.368355 204.718475,147.434418 204.719879,181.000488 
z"/>
<path fill="#FEFEFF" opacity="1.000000" stroke="none" 
	d="
M392.086731,223.152100 
	C373.212280,222.055115 354.189301,215.888885 345.462585,207.967804 
	C349.542297,200.009552 353.679443,191.939316 357.964172,183.581131 
	C371.206940,192.699570 385.408112,196.858704 400.808960,195.894867 
	C405.811249,195.581802 410.989502,194.098618 415.570557,192.014740 
	C421.736084,189.210098 424.380402,183.606659 423.944733,176.822525 
	C423.504974,169.974167 419.960815,164.907471 413.454254,163.067368 
	C407.442566,161.367233 401.095856,160.290268 394.857056,160.072128 
	C382.077209,159.625290 369.270844,159.938049 355.610321,159.938049 
	C358.013702,133.465561 360.367950,107.534355 362.748322,81.315414 
	C391.284180,81.315414 419.490417,81.315414 447.949097,81.315414 
	C447.949097,89.790466 447.949097,98.052933 447.949097,106.798187 
	C428.806671,106.798187 409.725891,106.798187 390.014252,106.798187 
	C389.249908,115.711174 388.521667,124.202942 387.699493,133.790466 
	C393.776947,133.790466 399.266235,133.293549 404.628815,133.905975 
	C412.845825,134.844391 421.256012,135.655319 429.082031,138.116943 
	C443.847961,142.761444 453.365875,152.957611 456.036591,168.571106 
	C458.927216,185.470032 454.362579,199.964401 440.838806,210.971619 
	C431.500000,218.572601 420.406403,221.999786 408.553802,222.919662 
	C403.252350,223.331085 397.901428,223.105774 392.086731,223.152100 
z"/>
<path fill="#FFFFFF" opacity="1.000000" stroke="none" 
	d="
M284.994781,220.999420 
	C278.856964,220.999420 273.217255,220.999420 266.995117,220.999420 
	C266.995117,183.133835 266.995117,145.596512 266.995117,107.516739 
	C251.834244,107.516739 237.248154,107.516739 222.341187,107.516739 
	C222.341187,98.558502 222.341187,90.138115 222.341187,81.357208 
	C262.666138,81.357208 303.037994,81.357208 343.723938,81.357208 
	C343.723938,89.771431 343.723938,98.174316 343.723938,107.190819 
	C329.132538,107.190819 314.581116,107.190819 299.422180,107.190819 
	C299.422180,145.320343 299.422180,182.848923 299.422180,220.999420 
	C294.376038,220.999420 289.934479,220.999420 284.994781,220.999420 
z"/>
<path fill="#F7F7F7" opacity="1.000000" stroke="none" 
	d="
M268.346985,397.205078 
	C268.415894,395.270294 268.484772,393.812653 268.562775,392.162384 
	C276.457275,392.162384 284.125000,391.617035 291.684479,392.289398 
	C303.195953,393.313263 310.732697,401.842255 310.831696,412.821045 
	C310.929382,423.654053 303.921631,432.229736 292.530273,433.541901 
	C284.703552,434.443481 276.689087,433.714813 268.346954,433.714813 
	C268.346954,421.576630 268.346954,409.629395 268.346985,397.205078 
M282.587524,400.001129 
	C281.170837,400.099945 279.754181,400.198761 278.381775,400.294464 
	C278.381775,408.996613 278.381775,417.252075 278.381775,426.112518 
	C282.674591,425.922180 286.839081,426.172974 290.832001,425.461212 
	C297.246521,424.317749 300.816315,419.525635 300.845886,413.061432 
	C300.875427,406.600128 297.317139,401.931122 290.942291,400.544708 
	C288.542267,400.022766 285.998260,400.162872 282.587524,400.001129 
z"/>
<path fill="#F6F6F6" opacity="1.000000" stroke="none" 
	d="
M210.880463,409.232178 
	C213.493515,410.008911 215.790131,410.515228 217.925964,411.406738 
	C221.787140,413.018524 224.761307,415.472321 225.222595,420.069977 
	C225.719299,425.020538 223.963043,428.882812 219.873611,431.650391 
	C212.448547,436.675446 198.044952,435.648438 190.598557,429.442444 
	C191.552887,427.309448 192.537384,425.109009 193.129791,423.784912 
	C198.893570,424.888245 203.999634,426.332489 209.170380,426.622040 
	C211.193420,426.735352 213.361649,424.256714 215.463745,422.958588 
	C213.705872,421.311127 212.211243,419.062256 210.130844,418.151611 
	C206.666260,416.635010 202.770691,416.139984 199.158325,414.914886 
	C194.534317,413.346680 191.450546,410.207001 191.214615,405.105225 
	C190.977890,399.986298 193.222015,395.985687 197.842987,393.730743 
	C206.423965,389.543335 214.828354,390.782501 223.617508,394.854309 
	C222.558334,397.479553 221.655350,399.717621 220.867325,401.670807 
	C216.532104,400.770721 212.559937,399.568268 208.515305,399.228516 
	C205.409058,398.967621 201.365814,399.503174 201.373230,403.511963 
	C201.376190,405.114288 205.004990,406.826965 207.141037,408.253204 
	C208.049271,408.859680 209.362396,408.859802 210.880463,409.232178 
z"/>
<path fill="#FBFBFB" opacity="1.000000" stroke="none" 
	d="
M249.962769,431.763123 
	C246.963013,433.086182 243.965195,433.931335 240.327271,434.956940 
	C240.327271,422.766815 240.327271,411.689301 240.327271,400.123230 
	C235.715561,400.123230 231.482407,400.123230 227.002960,400.123230 
	C227.002960,397.243347 227.002960,394.845917 227.002960,392.217834 
	C238.985260,392.217834 250.919586,392.217834 263.106628,392.217834 
	C263.106628,394.659210 263.106628,397.086182 263.106628,399.791779 
	C258.880493,399.791779 254.771561,399.791779 249.964676,399.791779 
	C249.964676,410.463531 249.964676,420.874359 249.962769,431.763123 
z"/>
<path fill="#060606" opacity="1.000000" stroke="none" 
	d="
M283.053711,400.001160 
	C285.998260,400.162872 288.542267,400.022766 290.942291,400.544708 
	C297.317139,401.931122 300.875427,406.600128 300.845886,413.061432 
	C300.816315,419.525635 297.246521,424.317749 290.832001,425.461212 
	C286.839081,426.172974 282.674591,425.922180 278.381775,426.112518 
	C278.381775,417.252075 278.381775,408.996613 278.381775,400.294464 
	C279.754181,400.198761 281.170837,400.099945 283.053711,400.001160 
z"/>
</svg>