<svg version="1.1" id="Layer_1" xmlns="http://www.w3.org/2000/svg" xmlns:xlink="http://www.w3.org/1999/xlink" x="0px" y="0px"
	 width="100%" viewBox="0 0 500 500" enable-background="new 0 0 500 500" xml:space="preserve">
<path fill="#5F5BCD" opacity="1.000000" stroke="none" 
	d="
M22.000000,501.000000 
	C20.611111,501.000000 19.222221,501.000000 17.120556,500.803345 
	C9.898629,499.065948 4.961251,495.241943 1.000000,490.000000 
	C1.000000,330.975922 1.000000,171.951843 1.280220,12.281749 
	C5.141700,5.818247 10.797826,3.012783 17.000000,1.000000 
	C171.690750,1.000000 326.381500,1.000000 481.823242,1.210488 
	C492.337860,3.484472 497.479156,10.392996 501.000000,19.000000 
	C501.000000,173.690750 501.000000,328.381500 500.679810,483.668121 
	C497.196960,493.086792 490.836670,498.401703 482.000000,501.000000 
	C481.250000,501.000000 480.500000,501.000000 479.402435,500.653625 
	C478.091675,499.167023 477.175354,497.983093 476.158600,496.892822 
	C404.714813,420.284546 333.263702,343.683075 261.809784,267.084229 
	C258.321411,263.344696 254.802795,259.633423 250.954773,255.543915 
	C174.390427,337.626465 98.195213,419.313232 22.000000,501.000000 
M76.194054,85.158096 
	C74.904236,83.782646 73.663750,81.275169 72.316544,81.216454 
	C63.913895,80.850250 55.487373,81.031738 47.156860,81.031738 
	C47.156860,128.041412 47.156860,174.285324 47.156860,220.740891 
	C57.189739,220.740891 66.928139,220.740891 77.264084,220.740891 
	C77.264084,193.994171 77.264084,167.500610 77.264084,141.007065 
	C79.171326,142.253860 80.157669,143.710358 81.071716,145.210907 
	C91.723366,162.697113 102.696281,180.000626 112.832382,197.781052 
	C116.511215,204.234329 120.462204,207.318054 128.013702,206.358841 
	C131.484543,205.917938 133.621536,205.206146 135.470734,202.043045 
	C146.979675,182.356583 158.722275,162.806656 170.402710,143.220627 
	C171.290558,141.731857 172.297089,140.313889 173.248459,138.863022 
	C173.576508,138.950821 173.904556,139.038620 174.232605,139.126419 
	C174.232605,166.312012 174.232605,193.497620 174.232605,220.570435 
	C184.749084,220.570435 194.626495,220.570435 204.188599,220.570435 
	C204.188599,173.909470 204.188599,127.682182 204.188599,80.997757 
	C196.475998,80.997757 189.341919,81.197319 182.227310,80.911942 
	C178.770126,80.773277 176.895844,81.983215 175.170319,84.919670 
	C159.906662,110.895325 144.491776,136.782135 129.108673,162.687531 
	C128.222687,164.179550 127.224380,165.604904 125.897301,167.647903 
	C109.198784,139.915192 92.903870,112.852798 76.194054,85.158096 
M387.500000,80.997345 
	C379.377777,80.997345 371.255524,80.997345 362.780548,80.997345 
	C360.383362,107.415794 358.029144,133.360870 355.621063,159.899429 
	C358.188782,159.899429 359.978729,159.896332 361.768707,159.899918 
	C373.427856,159.923340 385.102081,159.604996 396.739838,160.116104 
	C402.636932,160.375107 408.660370,161.542557 414.276917,163.372696 
	C420.279022,165.328491 423.512817,170.274918 423.944672,176.700851 
	C424.370667,183.039200 422.042114,188.226624 416.565186,191.526184 
	C413.908722,193.126556 410.868866,194.348587 407.842316,195.029129 
	C398.031189,197.235306 388.196381,196.419678 378.756927,193.350555 
	C371.600128,191.023621 364.802704,187.591354 357.523651,184.514999 
	C353.604736,192.117691 349.509552,200.062363 345.233429,208.358109 
	C347.631927,209.893372 349.615509,211.373169 351.778076,212.513596 
	C367.334290,220.717087 384.068817,223.635941 401.477997,223.342285 
	C415.953247,223.098129 429.697632,220.149109 441.148529,210.714676 
	C454.600983,199.631180 459.016815,185.007507 455.976257,168.167892 
	C453.167725,152.613663 443.519287,142.499146 428.697632,137.994888 
	C420.838989,135.606659 412.441376,134.800888 404.220612,133.864471 
	C399.014435,133.271439 393.685822,133.753708 387.717346,133.753708 
	C388.511841,124.306816 389.226685,115.806664 389.977936,106.873970 
	C409.627472,106.873970 428.704498,106.873970 447.814423,106.873970 
	C447.814423,98.019180 447.814423,89.653481 447.814423,80.997345 
	C427.769562,80.997345 408.134766,80.997345 387.500000,80.997345 
M306.500000,81.000786 
	C278.435669,81.000786 250.371353,81.000786 222.341553,81.000786 
	C222.341553,90.148712 222.341553,98.565559 222.341553,107.540726 
	C237.241852,107.540726 251.822708,107.540726 266.992920,107.540726 
	C266.992920,145.622131 266.992920,183.141205 266.992920,220.679413 
	C278.000763,220.679413 288.404541,220.679413 299.252930,220.679413 
	C299.252930,182.962082 299.252930,145.561264 299.252930,107.363449 
	C314.357544,107.363449 329.032410,107.363449 343.708435,107.363449 
	C343.708435,98.160088 343.708435,89.761162 343.708435,81.000786 
	C331.420959,81.000786 319.460480,81.000786 306.500000,81.000786 
z"/>
<path fill="#BC1823" opacity="1.000000" stroke="none" 
	d="
M22.468658,501.000000 
	C98.195213,419.313232 174.390427,337.626465 250.954773,255.543915 
	C254.802795,259.633423 258.321411,263.344696 261.809784,267.084229 
	C333.263702,343.683075 404.714813,420.284546 476.158600,496.892822 
	C477.175354,497.983093 478.091675,499.167023 479.027435,500.653625 
	C326.979095,501.000000 174.958206,501.000000 22.468658,501.000000 
M263.801025,420.075653 
	C270.188263,416.527069 272.284424,410.962769 271.050446,404.042267 
	C269.838104,397.243317 265.122650,393.320282 258.762787,392.697144 
	C250.946274,391.931274 242.997543,392.514404 235.355377,392.514404 
	C235.355377,406.459076 235.355377,420.184998 235.355377,433.687256 
	C238.667343,433.687256 241.595596,433.687256 244.964661,433.687256 
	C244.964661,429.776764 244.964661,426.183655 244.964661,422.962128 
	C251.070068,420.922852 255.234650,422.672791 257.558380,428.114197 
	C260.369049,434.695953 265.546661,434.846375 271.671326,433.539154 
	C268.805298,429.100037 266.044006,424.823120 263.801025,420.075653 
M305.701050,412.702850 
	C300.983307,411.165619 296.166351,409.868622 291.593323,407.980804 
	C289.574097,407.147186 288.049683,405.115021 286.300659,403.626984 
	C288.428680,402.138336 290.533447,399.454895 292.689636,399.412903 
	C297.014771,399.328705 301.368011,400.687531 306.138611,401.526184 
	C306.876282,399.713867 307.782349,397.487915 308.847931,394.870087 
	C300.330444,390.815521 292.064667,389.641968 283.599976,393.450623 
	C278.751648,395.632050 276.297302,399.661102 276.518097,405.036499 
	C276.738678,410.407654 279.967560,413.509155 284.824615,415.043457 
	C288.620636,416.242554 292.628082,416.876099 296.275208,418.398865 
	C298.086578,419.155151 299.299133,421.345673 300.782562,422.887421 
	C299.014893,424.162292 297.405762,426.014984 295.436554,426.555328 
	C293.316223,427.137054 290.781708,426.817261 288.565826,426.300018 
	C285.263855,425.529236 282.082794,424.240509 278.629913,423.099304 
	C277.649048,425.443665 276.718903,427.666809 275.687195,430.132782 
	C284.526581,434.919739 293.289032,436.573273 302.410248,432.995026 
	C311.635925,429.375854 313.380005,419.846069 305.701050,412.702850 
M207.240494,426.006500 
	C207.359055,424.964142 207.099030,423.617554 207.654556,422.926361 
	C213.390503,415.788940 219.437225,408.894043 224.989212,401.620056 
	C226.856461,399.173645 227.559082,395.838348 229.044617,392.314972 
	C215.864014,392.314972 204.306931,392.314972 192.812836,392.314972 
	C192.812836,395.030243 192.812836,397.407349 192.812836,400.215424 
	C200.108002,400.215424 206.993378,400.215424 214.735153,400.215424 
	C207.821289,408.553925 201.598694,416.307526 195.077454,423.801208 
	C192.469360,426.798187 191.220551,429.782623 192.345230,433.683044 
	C204.486450,433.683044 216.547852,433.683044 228.474854,433.683044 
	C228.474854,430.963684 228.474854,428.583405 228.474854,426.021332 
	C221.419220,426.021332 214.763763,426.021332 207.240494,426.006500 
z"/>
<path fill="#FAFAFD" opacity="1.000000" stroke="none" 
	d="
M501.000000,18.530293 
	C497.479156,10.392996 492.337860,3.484472 482.287109,1.210488 
	C488.257080,1.000000 494.514191,1.000000 501.000000,1.000000 
	C501.000000,6.684834 501.000000,12.372708 501.000000,18.530293 
z"/>
<path fill="#FAFAFD" opacity="1.000000" stroke="none" 
	d="
M482.469360,501.000000 
	C490.836670,498.401703 497.196960,493.086792 500.679810,484.132019 
	C501.000000,489.596619 501.000000,495.193268 501.000000,501.000000 
	C494.980713,501.000000 488.959747,501.000000 482.469360,501.000000 
z"/>
<path fill="#F9F9FD" opacity="1.000000" stroke="none" 
	d="
M16.528801,1.000000 
	C10.797826,3.012783 5.141700,5.818247 1.280220,11.817865 
	C1.000000,8.394546 1.000000,4.789090 1.000000,1.000000 
	C6.018224,1.000000 11.037913,1.000000 16.528801,1.000000 
z"/>
<path fill="#FAF9FD" opacity="1.000000" stroke="none" 
	d="
M1.000000,490.482971 
	C4.961251,495.241943 9.898629,499.065948 16.703890,500.803345 
	C11.760435,501.000000 6.520870,501.000000 1.000000,501.000000 
	C1.000000,497.660400 1.000000,494.313171 1.000000,490.482971 
z"/>
<path fill="#FEFEFF" opacity="1.000000" stroke="none" 
	d="
M76.401505,85.474243 
	C92.903870,112.852798 109.198784,139.915192 125.897301,167.647903 
	C127.224380,165.604904 128.222687,164.179550 129.108673,162.687531 
	C144.491776,136.782135 159.906662,110.895325 175.170319,84.919670 
	C176.895844,81.983215 178.770126,80.773277 182.227310,80.911942 
	C189.341919,81.197319 196.475998,80.997757 204.188599,80.997757 
	C204.188599,127.682182 204.188599,173.909470 204.188599,220.570435 
	C194.626495,220.570435 184.749084,220.570435 174.232605,220.570435 
	C174.232605,193.497620 174.232605,166.312012 174.232605,139.126419 
	C173.904556,139.038620 173.576508,138.950821 173.248459,138.863022 
	C172.297089,140.313889 171.290558,141.731857 170.402710,143.220627 
	C158.722275,162.806656 146.979675,182.356583 135.470734,202.043045 
	C133.621536,205.206146 131.484543,205.917938 128.013702,206.358841 
	C120.462204,207.318054 116.511215,204.234329 112.832382,197.781052 
	C102.696281,180.000626 91.723366,162.697113 81.071716,145.210907 
	C80.157669,143.710358 79.171326,142.253860 77.264084,141.007065 
	C77.264084,167.500610 77.264084,193.994171 77.264084,220.740891 
	C66.928139,220.740891 57.189739,220.740891 47.156860,220.740891 
	C47.156860,174.285324 47.156860,128.041412 47.156860,81.031738 
	C55.487373,81.031738 63.913895,80.850250 72.316544,81.216454 
	C73.663750,81.275169 74.904236,83.782646 76.401505,85.474243 
z"/>
<path fill="#FEFEFF" opacity="1.000000" stroke="none" 
	d="
M388.000000,80.997345 
	C408.134766,80.997345 427.769562,80.997345 447.814423,80.997345 
	C447.814423,89.653481 447.814423,98.019180 447.814423,106.873970 
	C428.704498,106.873970 409.627472,106.873970 389.977936,106.873970 
	C389.226685,115.806664 388.511841,124.306816 387.717346,133.753708 
	C393.685822,133.753708 399.014435,133.271439 404.220612,133.864471 
	C412.441376,134.800888 420.838989,135.606659 428.697632,137.994888 
	C443.519287,142.499146 453.167725,152.613663 455.976257,168.167892 
	C459.016815,185.007507 454.600983,199.631180 441.148529,210.714676 
	C429.697632,220.149109 415.953247,223.098129 401.477997,223.342285 
	C384.068817,223.635941 367.334290,220.717087 351.778076,212.513596 
	C349.615509,211.373169 347.631927,209.893372 345.233429,208.358109 
	C349.509552,200.062363 353.604736,192.117691 357.523651,184.514999 
	C364.802704,187.591354 371.600128,191.023621 378.756927,193.350555 
	C388.196381,196.419678 398.031189,197.235306 407.842316,195.029129 
	C410.868866,194.348587 413.908722,193.126556 416.565186,191.526184 
	C422.042114,188.226624 424.370667,183.039200 423.944672,176.700851 
	C423.512817,170.274918 420.279022,165.328491 414.276917,163.372696 
	C408.660370,161.542557 402.636932,160.375107 396.739838,160.116104 
	C385.102081,159.604996 373.427856,159.923340 361.768707,159.899918 
	C359.978729,159.896332 358.188782,159.899429 355.621063,159.899429 
	C358.029144,133.360870 360.383362,107.415794 362.780548,80.997345 
	C371.255524,80.997345 379.377777,80.997345 388.000000,80.997345 
z"/>
<path fill="#FFFFFF" opacity="1.000000" stroke="none" 
	d="
M307.000000,81.000786 
	C319.460480,81.000786 331.420959,81.000786 343.708435,81.000786 
	C343.708435,89.761162 343.708435,98.160088 343.708435,107.363449 
	C329.032410,107.363449 314.357544,107.363449 299.252930,107.363449 
	C299.252930,145.561264 299.252930,182.962082 299.252930,220.679413 
	C288.404541,220.679413 278.000763,220.679413 266.992920,220.679413 
	C266.992920,183.141205 266.992920,145.622131 266.992920,107.540726 
	C251.822708,107.540726 237.241852,107.540726 222.341553,107.540726 
	C222.341553,98.565559 222.341553,90.148712 222.341553,81.000786 
	C250.371353,81.000786 278.435669,81.000786 307.000000,81.000786 
z"/>
<path fill="#FDFAFA" opacity="1.000000" stroke="none" 
	d="
M263.541870,420.310944 
	C266.044006,424.823120 268.805298,429.100037 271.671326,433.539154 
	C265.546661,434.846375 260.369049,434.695953 257.558380,428.114197 
	C255.234650,422.672791 251.070068,420.922852 244.964661,422.962128 
	C244.964661,426.183655 244.964661,429.776764 244.964661,433.687256 
	C241.595596,433.687256 238.667343,433.687256 235.355377,433.687256 
	C235.355377,420.184998 235.355377,406.459076 235.355377,392.514404 
	C242.997543,392.514404 250.946274,391.931274 258.762787,392.697144 
	C265.122650,393.320282 269.838104,397.243317 271.050446,404.042267 
	C272.284424,410.962769 270.188263,416.527069 263.541870,420.310944 
M244.836823,406.544952 
	C244.836823,409.119171 244.836823,411.693420 244.836823,414.673920 
	C250.783340,413.784729 257.059235,416.597351 260.487518,410.623932 
	C261.584717,408.712189 261.200897,404.578522 259.790375,402.861755 
	C255.863388,398.082153 250.151093,400.497375 244.836838,399.938416 
	C244.836838,402.290466 244.836838,403.931824 244.836823,406.544952 
z"/>
<path fill="#FDF7F7" opacity="1.000000" stroke="none" 
	d="
M306.017914,412.900757 
	C313.380005,419.846069 311.635925,429.375854 302.410248,432.995026 
	C293.289032,436.573273 284.526581,434.919739 275.687195,430.132782 
	C276.718903,427.666809 277.649048,425.443665 278.629913,423.099304 
	C282.082794,424.240509 285.263855,425.529236 288.565826,426.300018 
	C290.781708,426.817261 293.316223,427.137054 295.436554,426.555328 
	C297.405762,426.014984 299.014893,424.162292 300.782562,422.887390 
	C299.299133,421.345673 298.086578,419.155151 296.275208,418.398865 
	C292.628082,416.876099 288.620636,416.242554 284.824615,415.043457 
	C279.967560,413.509155 276.738678,410.407654 276.518097,405.036499 
	C276.297302,399.661102 278.751648,395.632050 283.599976,393.450623 
	C292.064667,389.641968 300.330444,390.815521 308.847931,394.870087 
	C307.782349,397.487915 306.876282,399.713867 306.138611,401.526184 
	C301.368011,400.687531 297.014771,399.328705 292.689636,399.412903 
	C290.533447,399.454895 288.428680,402.138336 286.300659,403.626984 
	C288.049683,405.115021 289.574097,407.147186 291.593323,407.980804 
	C296.166351,409.868622 300.983307,411.165619 306.017914,412.900757 
z"/>
<path fill="#FEFAFB" opacity="1.000000" stroke="none" 
	d="
M207.674408,426.013916 
	C214.763763,426.021332 221.419220,426.021332 228.474854,426.021332 
	C228.474854,428.583405 228.474854,430.963684 228.474854,433.683044 
	C216.547852,433.683044 204.486450,433.683044 192.345230,433.683044 
	C191.220551,429.782623 192.469360,426.798187 195.077454,423.801208 
	C201.598694,416.307526 207.821289,408.553925 214.735153,400.215424 
	C206.993378,400.215424 200.108002,400.215424 192.812836,400.215424 
	C192.812836,397.407349 192.812836,395.030243 192.812836,392.314972 
	C204.306931,392.314972 215.864014,392.314972 229.044617,392.314972 
	C227.559082,395.838348 226.856461,399.173645 224.989212,401.620056 
	C219.437225,408.894043 213.390503,415.788940 207.654556,422.926361 
	C207.099030,423.617554 207.359055,424.964142 207.674408,426.013916 
z"/>
<path fill="#BD1B26" opacity="1.000000" stroke="none" 
	d="
M244.836823,406.059082 
	C244.836838,403.931824 244.836838,402.290466 244.836838,399.938416 
	C250.151093,400.497375 255.863388,398.082153 259.790375,402.861755 
	C261.200897,404.578522 261.584717,408.712189 260.487518,410.623932 
	C257.059235,416.597351 250.783340,413.784729 244.836823,414.673920 
	C244.836823,411.693420 244.836823,409.119171 244.836823,406.059082 
z"/>
</svg>