<svg version="1.1" id="Layer_1" xmlns="http://www.w3.org/2000/svg" xmlns:xlink="http://www.w3.org/1999/xlink" x="0px" y="0px"
	 width="100%" viewBox="0 0 500 500" enable-background="new 0 0 500 500" xml:space="preserve">
<path fill="#5F5BCD" opacity="1.000000" stroke="none" 
	d="
M22.000000,501.000000 
	C20.611111,501.000000 19.222221,501.000000 17.116627,500.808472 
	C9.905659,499.052032 4.952943,495.251099 1.000000,490.000000 
	C1.000000,330.975922 1.000000,171.951843 1.279796,12.280647 
	C5.143505,5.819624 10.794795,3.007657 17.000000,1.000000 
	C171.690750,1.000000 326.381500,1.000000 481.826904,1.206223 
	C492.334015,3.491292 497.485809,10.388154 501.000000,19.000000 
	C501.000000,173.690750 501.000000,328.381500 500.679871,483.668762 
	C497.199402,493.090485 490.833313,498.398651 482.000000,501.000000 
	C481.250000,501.000000 480.500000,501.000000 479.350189,500.658020 
	C478.361664,499.516663 477.846039,498.649170 477.173676,497.927826 
	C444.684814,463.072845 412.181213,428.231659 379.682037,393.386353 
	C338.660461,349.403351 297.629059,305.429443 256.662323,261.395416 
	C254.885712,259.485779 253.713257,257.014069 251.703857,253.959793 
	C248.717422,257.519440 247.399399,259.242218 245.928040,260.822235 
	C202.783279,307.153442 159.634109,353.480560 116.461960,399.786224 
	C84.992012,433.540344 53.488541,467.263214 22.000000,501.000000 
M76.194969,85.157799 
	C74.903992,83.782501 73.662361,81.275391 72.313988,81.216606 
	C63.911694,80.850273 55.485516,81.031906 47.180527,81.031906 
	C47.180527,128.064468 47.180527,174.317383 47.180527,220.716049 
	C57.242134,220.716049 66.983391,220.716049 77.370079,220.716049 
	C77.370079,193.955872 77.370079,167.473770 77.370079,139.523621 
	C79.136429,142.208740 80.076584,143.547501 80.925400,144.941864 
	C92.614510,164.143829 104.334824,183.327087 115.918213,202.592682 
	C117.460022,205.157013 119.104118,206.614334 122.217735,206.220505 
	C124.021835,205.992340 125.906006,205.976761 127.705719,206.221573 
	C131.507645,206.738678 133.642761,205.226669 135.603470,201.862656 
	C147.090302,182.154388 158.849915,162.605042 170.530487,143.009811 
	C171.379608,141.585312 172.331406,140.222000 173.235474,138.830261 
	C173.589951,138.979477 173.944412,139.128708 174.298889,139.277924 
	C174.298889,166.374054 174.298889,193.470184 174.298889,220.618530 
	C184.652893,220.618530 194.531143,220.618530 204.216125,220.618530 
	C204.216125,173.990784 204.216125,127.748787 204.216125,80.997704 
	C196.704422,80.997704 189.738266,81.227081 182.797485,80.906586 
	C178.993774,80.730949 176.893234,81.937668 174.934586,85.284599 
	C159.796631,111.152557 144.431915,136.887833 129.124588,162.656586 
	C128.235443,164.153412 127.234184,165.583618 125.895180,167.645187 
	C109.205193,139.925919 92.907425,112.858078 76.194969,85.157799 
M448.228760,94.496979 
	C448.228760,90.088890 448.228760,85.680801 448.228760,81.258087 
	C419.307465,81.258087 391.222870,81.258087 362.759186,81.258087 
	C360.384583,107.427208 358.030487,133.370132 355.623230,159.898819 
	C358.208160,159.898819 359.999329,159.895660 361.790497,159.899323 
	C373.449585,159.923126 385.123840,159.604385 396.761414,160.117096 
	C402.658051,160.376862 408.797058,161.323380 414.281616,163.399033 
	C424.221649,167.160873 427.586121,180.215317 420.493591,187.792862 
	C417.307098,191.197235 412.370056,193.943542 407.793427,194.889893 
	C391.434021,198.272690 376.108459,194.530685 361.836670,186.100571 
	C360.616211,185.379669 359.381500,184.682877 357.883423,183.819260 
	C353.594849,192.138535 349.498810,200.084244 345.208984,208.405930 
	C347.776978,210.008896 349.918610,211.557053 352.239166,212.760132 
	C367.846527,220.851624 384.596497,223.704437 402.002472,223.332382 
	C416.304260,223.026688 429.871216,220.025208 441.167969,210.699127 
	C454.608704,199.603119 459.028137,184.980667 455.971497,168.141296 
	C453.149200,152.593109 443.498108,142.480469 428.671021,137.986404 
	C420.809753,135.603653 412.413269,134.796097 404.192078,133.860214 
	C398.988861,133.267883 393.663361,133.749588 387.711548,133.749588 
	C388.510010,124.295532 389.227875,115.795509 389.982330,106.862556 
	C409.642395,106.862556 428.719147,106.862556 448.228821,106.862556 
	C448.228821,102.750412 448.228821,99.118973 448.228760,94.496979 
M299.223785,194.500076 
	C299.223785,165.623154 299.223785,136.746231 299.223785,107.227013 
	C314.619171,107.227013 329.157776,107.227013 343.713501,107.227013 
	C343.713501,98.173378 343.713501,89.774460 343.713501,81.357391 
	C303.034271,81.357391 262.681763,81.357391 222.334320,81.357391 
	C222.334320,90.132957 222.334320,98.548210 222.334320,107.529213 
	C237.224243,107.529213 251.802628,107.529213 266.973999,107.529213 
	C266.973999,145.612961 266.973999,183.128159 266.973999,220.686111 
	C277.983765,220.686111 288.386475,220.686111 299.223877,220.686111 
	C299.223877,212.086685 299.223877,203.793381 299.223785,194.500076 
z"/>
<path fill="#3F7652" opacity="1.000000" stroke="none" 
	d="
M22.468657,501.000000 
	C53.488541,467.263214 84.992012,433.540344 116.461960,399.786224 
	C159.634109,353.480560 202.783279,307.153442 245.928040,260.822235 
	C247.399399,259.242218 248.717422,257.519440 251.703857,253.959793 
	C253.713257,257.014069 254.885712,259.485779 256.662323,261.395416 
	C297.629059,305.429443 338.660461,349.403351 379.682037,393.386353 
	C412.181213,428.231659 444.684814,463.072845 477.173676,497.927826 
	C477.846039,498.649170 478.361664,499.516663 478.975189,500.658020 
	C326.979095,501.000000 174.958206,501.000000 22.468657,501.000000 
M260.751099,419.496399 
	C260.751099,424.246857 260.751099,428.997314 260.751099,433.604980 
	C264.380798,433.604980 267.260254,433.604980 270.708679,433.604980 
	C270.708679,425.561279 270.708679,417.908142 270.708679,409.081116 
	C276.918304,416.628906 282.617279,422.938721 287.565491,429.790680 
	C290.787537,434.252350 294.421417,434.694244 298.977966,433.546295 
	C298.977966,419.651550 298.977966,406.047974 298.977966,392.257629 
	C295.824036,392.257629 292.926788,392.257629 289.454468,392.257629 
	C289.454468,400.210480 289.454468,407.915833 289.454468,417.170380 
	C283.230713,409.572205 277.712463,403.404205 272.882263,396.737701 
	C269.680603,392.318878 266.106903,390.937836 260.751099,392.565491 
	C260.751099,401.222961 260.751099,409.860016 260.751099,419.496399 
M202.730530,411.500000 
	C202.730530,418.921021 202.730530,426.342010 202.730530,433.727631 
	C206.297455,433.727631 209.217239,433.727631 212.683380,433.727631 
	C212.683380,428.717560 212.683380,423.977264 212.683380,418.789429 
	C219.314468,418.789429 225.402771,418.789429 231.629105,418.789429 
	C231.629105,415.934509 231.629105,413.564880 231.629105,410.761841 
	C225.201218,410.761841 219.104202,410.761841 212.961700,410.761841 
	C212.961700,406.943115 212.961700,403.577301 212.961700,399.768188 
	C220.266479,399.768188 227.179230,399.768188 234.186478,399.768188 
	C234.186478,396.928833 234.186478,394.562958 234.186478,392.278198 
	C223.541885,392.278198 213.302338,392.278198 202.730560,392.278198 
	C202.730560,398.546448 202.730560,404.523499 202.730530,411.500000 
M240.976410,422.480347 
	C240.976410,426.239014 240.976410,429.997681 240.976410,433.760254 
	C244.519028,433.760254 247.434845,433.760254 250.581497,433.760254 
	C250.581497,419.825592 250.581497,406.142761 250.581497,392.325073 
	C247.281876,392.325073 244.254242,392.325073 240.976410,392.325073 
	C240.976410,402.269043 240.976410,411.878174 240.976410,422.480347 
z"/>
<path fill="#FAFAFD" opacity="1.000000" stroke="none" 
	d="
M501.000000,18.530293 
	C497.485809,10.388154 492.334015,3.491292 482.290771,1.206223 
	C488.257080,1.000000 494.514191,1.000000 501.000000,1.000000 
	C501.000000,6.684834 501.000000,12.372708 501.000000,18.530293 
z"/>
<path fill="#FAFAFD" opacity="1.000000" stroke="none" 
	d="
M482.469360,501.000000 
	C490.833313,498.398651 497.199402,493.090485 500.679871,484.132660 
	C501.000000,489.596619 501.000000,495.193268 501.000000,501.000000 
	C494.980713,501.000000 488.959747,501.000000 482.469360,501.000000 
z"/>
<path fill="#F9F9FD" opacity="1.000000" stroke="none" 
	d="
M16.528801,1.000000 
	C10.794795,3.007657 5.143505,5.819624 1.279796,11.816764 
	C1.000000,8.394546 1.000000,4.789090 1.000000,1.000000 
	C6.018224,1.000000 11.037913,1.000000 16.528801,1.000000 
z"/>
<path fill="#FAF9FD" opacity="1.000000" stroke="none" 
	d="
M1.000000,490.482971 
	C4.952943,495.251099 9.905659,499.052032 16.699959,500.808472 
	C11.760435,501.000000 6.520870,501.000000 1.000000,501.000000 
	C1.000000,497.660400 1.000000,494.313171 1.000000,490.482971 
z"/>
<path fill="#FEFEFF" opacity="1.000000" stroke="none" 
	d="
M76.402313,85.474014 
	C92.907425,112.858078 109.205193,139.925919 125.895180,167.645187 
	C127.234184,165.583618 128.235443,164.153412 129.124588,162.656586 
	C144.431915,136.887833 159.796631,111.152557 174.934586,85.284599 
	C176.893234,81.937668 178.993774,80.730949 182.797485,80.906586 
	C189.738266,81.227081 196.704422,80.997704 204.216125,80.997704 
	C204.216125,127.748787 204.216125,173.990784 204.216125,220.618530 
	C194.531143,220.618530 184.652893,220.618530 174.298889,220.618530 
	C174.298889,193.470184 174.298889,166.374054 174.298889,139.277924 
	C173.944412,139.128708 173.589951,138.979477 173.235474,138.830261 
	C172.331406,140.222000 171.379608,141.585312 170.530487,143.009811 
	C158.849915,162.605042 147.090302,182.154388 135.603470,201.862656 
	C133.642761,205.226669 131.507645,206.738678 127.705719,206.221573 
	C125.906006,205.976761 124.021835,205.992340 122.217735,206.220505 
	C119.104118,206.614334 117.460022,205.157013 115.918213,202.592682 
	C104.334824,183.327087 92.614510,164.143829 80.925400,144.941864 
	C80.076584,143.547501 79.136429,142.208740 77.370079,139.523621 
	C77.370079,167.473770 77.370079,193.955872 77.370079,220.716049 
	C66.983391,220.716049 57.242134,220.716049 47.180527,220.716049 
	C47.180527,174.317383 47.180527,128.064468 47.180527,81.031906 
	C55.485516,81.031906 63.911694,80.850273 72.313988,81.216606 
	C73.662361,81.275391 74.903992,83.782501 76.402313,85.474014 
z"/>
<path fill="#FEFEFF" opacity="1.000000" stroke="none" 
	d="
M448.228790,94.992256 
	C448.228821,99.118973 448.228821,102.750412 448.228821,106.862556 
	C428.719147,106.862556 409.642395,106.862556 389.982330,106.862556 
	C389.227875,115.795509 388.510010,124.295532 387.711548,133.749588 
	C393.663361,133.749588 398.988861,133.267883 404.192078,133.860214 
	C412.413269,134.796097 420.809753,135.603653 428.671021,137.986404 
	C443.498108,142.480469 453.149200,152.593109 455.971497,168.141296 
	C459.028137,184.980667 454.608704,199.603119 441.167969,210.699127 
	C429.871216,220.025208 416.304260,223.026688 402.002472,223.332382 
	C384.596497,223.704437 367.846527,220.851624 352.239166,212.760132 
	C349.918610,211.557053 347.776978,210.008896 345.208984,208.405930 
	C349.498810,200.084244 353.594849,192.138535 357.883423,183.819260 
	C359.381500,184.682877 360.616211,185.379669 361.836670,186.100571 
	C376.108459,194.530685 391.434021,198.272690 407.793427,194.889893 
	C412.370056,193.943542 417.307098,191.197235 420.493591,187.792862 
	C427.586121,180.215317 424.221649,167.160873 414.281616,163.399033 
	C408.797058,161.323380 402.658051,160.376862 396.761414,160.117096 
	C385.123840,159.604385 373.449585,159.923126 361.790497,159.899323 
	C359.999329,159.895660 358.208160,159.898819 355.623230,159.898819 
	C358.030487,133.370132 360.384583,107.427208 362.759186,81.258087 
	C391.222870,81.258087 419.307465,81.258087 448.228760,81.258087 
	C448.228760,85.680801 448.228760,90.088890 448.228790,94.992256 
z"/>
<path fill="#FFFFFF" opacity="1.000000" stroke="none" 
	d="
M299.223816,195.000092 
	C299.223877,203.793381 299.223877,212.086685 299.223877,220.686111 
	C288.386475,220.686111 277.983765,220.686111 266.973999,220.686111 
	C266.973999,183.128159 266.973999,145.612961 266.973999,107.529213 
	C251.802628,107.529213 237.224243,107.529213 222.334320,107.529213 
	C222.334320,98.548210 222.334320,90.132957 222.334320,81.357391 
	C262.681763,81.357391 303.034271,81.357391 343.713501,81.357391 
	C343.713501,89.774460 343.713501,98.173378 343.713501,107.227013 
	C329.157776,107.227013 314.619171,107.227013 299.223785,107.227013 
	C299.223785,136.746231 299.223785,165.623154 299.223816,195.000092 
z"/>
<path fill="#FEFEFE" opacity="1.000000" stroke="none" 
	d="
M260.751099,418.996735 
	C260.751099,409.860016 260.751099,401.222961 260.751099,392.565491 
	C266.106903,390.937836 269.680603,392.318878 272.882263,396.737701 
	C277.712463,403.404205 283.230713,409.572205 289.454468,417.170380 
	C289.454468,407.915833 289.454468,400.210480 289.454468,392.257629 
	C292.926788,392.257629 295.824036,392.257629 298.977966,392.257629 
	C298.977966,406.047974 298.977966,419.651550 298.977966,433.546295 
	C294.421417,434.694244 290.787537,434.252350 287.565491,429.790680 
	C282.617279,422.938721 276.918304,416.628906 270.708679,409.081116 
	C270.708679,417.908142 270.708679,425.561279 270.708679,433.604980 
	C267.260254,433.604980 264.380798,433.604980 260.751099,433.604980 
	C260.751099,428.997314 260.751099,424.246857 260.751099,418.996735 
z"/>
<path fill="#F9FAF9" opacity="1.000000" stroke="none" 
	d="
M202.730545,411.000305 
	C202.730560,404.523499 202.730560,398.546448 202.730560,392.278198 
	C213.302338,392.278198 223.541885,392.278198 234.186478,392.278198 
	C234.186478,394.562958 234.186478,396.928833 234.186478,399.768188 
	C227.179230,399.768188 220.266479,399.768188 212.961700,399.768188 
	C212.961700,403.577301 212.961700,406.943115 212.961700,410.761841 
	C219.104202,410.761841 225.201218,410.761841 231.629105,410.761841 
	C231.629105,413.564880 231.629105,415.934509 231.629105,418.789429 
	C225.402771,418.789429 219.314468,418.789429 212.683380,418.789429 
	C212.683380,423.977264 212.683380,428.717560 212.683380,433.727631 
	C209.217239,433.727631 206.297455,433.727631 202.730530,433.727631 
	C202.730530,426.342010 202.730530,418.921021 202.730545,411.000305 
z"/>
<path fill="#FAFCFB" opacity="1.000000" stroke="none" 
	d="
M240.976410,421.983826 
	C240.976410,411.878174 240.976410,402.269043 240.976410,392.325073 
	C244.254242,392.325073 247.281876,392.325073 250.581497,392.325073 
	C250.581497,406.142761 250.581497,419.825592 250.581497,433.760254 
	C247.434845,433.760254 244.519028,433.760254 240.976410,433.760254 
	C240.976410,429.997681 240.976410,426.239014 240.976410,421.983826 
z"/>
</svg>