<svg version="1.1" id="Layer_1" xmlns="http://www.w3.org/2000/svg" xmlns:xlink="http://www.w3.org/1999/xlink" x="0px" y="0px"
	 width="100%" viewBox="0 0 500 500" enable-background="new 0 0 500 500" xml:space="preserve">
<path fill="#5F5BCD" opacity="1.000000" stroke="none" 
	d="
M21.999996,501.000000 
	C20.611111,501.000000 19.222221,501.000000 17.112982,500.812744 
	C9.908719,499.043732 4.951034,495.251007 1.000000,490.000000 
	C1.000000,330.975922 1.000000,171.951843 1.279592,12.279728 
	C5.144941,5.820426 10.793142,3.004534 17.000000,1.000000 
	C171.357407,1.000000 325.714813,1.000000 480.904480,1.000500 
	C491.590057,3.327336 497.551880,9.818535 501.000000,19.000000 
	C501.000000,173.690750 501.000000,328.381500 500.679840,483.669495 
	C497.199310,493.091644 490.834320,498.400482 482.000000,501.000000 
	C481.555573,501.000000 481.111115,501.000000 480.123749,500.743408 
	C403.501160,418.963806 327.421509,337.440765 250.594391,255.116791 
	C248.389832,257.777740 246.892273,259.782471 245.196884,261.602905 
	C197.063965,313.285400 148.918396,364.956116 100.758568,416.613556 
	C74.521027,444.756653 48.253834,472.872101 21.999996,501.000000 
M46.861637,170.499939 
	C46.861637,187.243805 46.861637,203.987686 46.861637,220.641205 
	C57.417522,220.641205 67.162048,220.641205 77.374809,220.641205 
	C77.374809,193.901779 77.374809,167.519836 77.374809,139.666672 
	C79.092781,142.199585 80.035225,143.470123 80.854866,144.815491 
	C92.204414,163.444931 103.681541,181.999496 114.761337,200.788254 
	C117.200813,204.925049 119.846748,206.176300 124.556389,206.402954 
	C130.893326,206.707932 134.240356,204.554245 137.374176,199.012833 
	C148.027405,180.174988 159.363297,161.723083 170.450592,143.131027 
	C171.319672,141.673676 172.282379,140.272171 173.201569,138.844727 
	C173.553452,138.984894 173.905319,139.125061 174.257202,139.265228 
	C174.257202,166.354935 174.257202,193.444641 174.257202,220.628693 
	C184.628448,220.628693 194.505295,220.628693 204.223938,220.628693 
	C204.223938,174.010254 204.223938,127.767281 204.223938,80.997772 
	C196.892868,80.997772 190.090637,81.263107 183.322113,80.899940 
	C179.148636,80.676025 176.844849,81.994293 174.686768,85.692024 
	C159.663193,111.434013 144.360657,137.013214 129.134766,162.637009 
	C128.243591,164.136795 127.241203,165.570496 125.989708,167.498398 
	C124.673340,165.433151 123.678116,163.944153 122.754555,162.411987 
	C107.194885,136.598709 91.664558,110.767708 76.040886,84.993271 
	C75.101158,83.443016 73.479141,81.257332 72.095421,81.197456 
	C63.836174,80.840103 55.553658,81.020592 46.861633,81.020592 
	C46.861633,110.912773 46.861633,140.206345 46.861637,170.499939 
M378.068451,221.492447 
	C384.690491,222.127167 391.303772,223.172943 397.936310,223.314270 
	C413.587738,223.647797 428.607544,220.999969 441.115936,210.734131 
	C454.592316,199.673889 459.011749,185.039642 455.977997,168.193100 
	C453.176361,152.635483 443.537689,142.509720 428.712341,137.999771 
	C420.852264,135.608704 412.453186,134.798294 404.230591,133.859573 
	C399.022797,133.265045 393.691956,133.748535 387.713379,133.748535 
	C388.505035,124.330368 389.219849,115.826538 389.971527,106.884071 
	C409.608643,106.884071 428.689240,106.884071 447.817230,106.884071 
	C447.817230,98.024971 447.817230,89.659210 447.817230,81.259506 
	C419.315338,81.259506 391.227386,81.259506 362.760162,81.259506 
	C360.385834,107.431831 358.032166,133.376770 355.626160,159.898422 
	C358.220245,159.898422 360.018036,159.895218 361.815796,159.898941 
	C373.477020,159.923187 385.153564,159.603531 396.793121,160.118637 
	C402.690155,160.379608 408.831482,161.330292 414.313049,163.414185 
	C424.247040,167.190735 427.553864,180.233231 420.480682,187.836273 
	C417.398834,191.148941 412.664490,193.886322 408.244354,194.820435 
	C391.712128,198.314240 376.222778,194.609573 361.791840,186.074814 
	C360.577271,185.356491 359.344238,184.669388 357.873535,183.826675 
	C353.570007,192.180908 349.474335,200.131683 345.262299,208.308304 
	C355.084412,215.507721 365.904663,219.016800 378.068451,221.492447 
M339.415710,107.436745 
	C340.841034,107.299850 342.266327,107.162956 343.722778,107.023064 
	C343.722778,98.209984 343.722778,89.804314 343.722778,81.388916 
	C303.026917,81.388916 262.648651,81.388916 222.366623,81.388916 
	C222.366623,90.206390 222.366623,98.632011 222.366623,107.622101 
	C237.310043,107.622101 251.907974,107.622101 266.950256,107.622101 
	C266.950256,145.624588 266.950256,183.053482 266.950256,220.576935 
	C277.933746,220.576935 288.455963,220.576935 299.500244,220.576935 
	C299.500244,182.750534 299.500244,145.343948 299.500244,107.438347 
	C312.826752,107.438347 325.627502,107.438347 339.415710,107.436745 
z"/>
<path fill="#46BEDA" opacity="1.000000" stroke="none" 
	d="
M22.468655,501.000000 
	C48.253834,472.872101 74.521027,444.756653 100.758568,416.613556 
	C148.918396,364.956116 197.063965,313.285400 245.196884,261.602905 
	C246.892273,259.782471 248.389832,257.777740 250.594391,255.116791 
	C327.421509,337.440765 403.501160,418.963806 479.790405,500.743408 
	C327.645782,501.000000 175.291550,501.000000 22.468655,501.000000 
M235.595078,415.681885 
	C233.798569,410.142456 231.988312,404.607422 230.208832,399.062531 
	C227.643814,391.069824 226.697449,390.560516 218.048416,392.849396 
	C222.088623,405.180664 226.306366,417.442505 230.050064,429.847412 
	C231.194366,433.639099 233.262772,434.107239 236.583405,434.098511 
	C239.982193,434.089600 242.435974,433.953064 243.595901,429.806976 
	C245.727325,422.188263 248.559586,414.765656 251.556763,405.911072 
	C254.465576,414.854431 257.190643,422.353149 259.281769,430.024689 
	C260.365448,434.000244 262.746368,434.100800 265.948547,434.077362 
	C269.091278,434.054352 271.501953,434.119354 272.690643,430.125793 
	C276.107330,418.647247 280.047455,407.324890 283.741180,395.927948 
	C284.114227,394.776917 284.210510,393.536163 284.440826,392.307190 
	C275.710022,391.561279 275.708130,391.560669 273.236176,399.070801 
	C270.978638,405.929474 268.725830,412.789673 266.470947,419.649170 
	C262.732300,411.691437 260.067352,403.876862 257.722748,395.967316 
	C256.810303,392.889160 255.326904,391.731873 252.085403,391.896698 
	C249.087250,392.049164 246.901306,392.064209 245.828049,395.792542 
	C243.512390,403.836731 240.562988,411.698517 237.543518,420.606628 
	C236.692841,418.505768 236.266403,417.452606 235.595078,415.681885 
M201.999359,391.412598 
	C196.846176,392.323456 191.424088,392.525879 186.617706,394.350372 
	C182.084167,396.071320 180.509689,400.615326 180.860458,405.572296 
	C181.199661,410.365692 184.078598,413.199463 188.222717,414.727051 
	C191.957336,416.103729 196.013687,416.644379 199.679306,418.156830 
	C201.705536,418.992889 203.220657,421.067627 204.966187,422.583984 
	C202.963669,423.990845 201.037109,426.419708 198.941620,426.575409 
	C195.418152,426.837219 191.760544,425.780060 188.213318,425.024414 
	C186.516617,424.662994 184.943604,423.720825 183.045868,422.929688 
	C181.910110,425.453339 180.928345,427.634796 179.805496,430.129791 
	C189.241364,434.981598 198.282227,436.707947 207.697632,432.534973 
	C212.529480,430.393463 215.083572,426.372467 214.857330,420.967651 
	C214.640442,415.785767 211.415039,412.801788 206.842651,411.214600 
	C203.391495,410.016632 199.660995,409.540375 196.333313,408.099670 
	C194.214203,407.182190 191.133499,405.154816 191.060150,403.510254 
	C190.887222,399.633179 194.748825,399.047516 197.669937,399.254791 
	C201.737534,399.543335 205.744781,400.682800 210.380707,401.574005 
	C211.128357,399.721222 212.021408,397.508118 213.221909,394.533112 
	C209.422409,393.447571 206.135422,392.508453 201.999359,391.412598 
M319.796021,415.356659 
	C320.329071,411.852264 318.824860,410.656830 315.336121,410.839539 
	C310.555389,411.089874 305.751740,410.902100 300.591370,410.902100 
	C300.591370,407.070557 300.591370,403.832458 300.591370,400.074982 
	C307.702087,400.074982 314.642090,400.074982 321.899231,400.074982 
	C321.899231,397.142700 321.899231,394.726013 321.899231,392.339569 
	C311.355347,392.339569 301.117584,392.339569 290.642822,392.339569 
	C290.642822,406.277344 290.642822,419.856110 290.642822,433.725983 
	C293.869049,433.725983 296.789429,433.725983 300.380646,433.725983 
	C300.380646,428.842285 300.380646,424.110687 300.380646,418.849609 
	C306.003448,418.849609 310.979919,419.030090 315.927155,418.729706 
	C317.255066,418.649048 318.494019,417.103851 319.796021,415.356659 
z"/>
<path fill="#FAFAFD" opacity="1.000000" stroke="none" 
	d="
M501.000000,18.530293 
	C497.551880,9.818535 491.590057,3.327336 481.368347,1.000500 
	C487.588562,1.000000 494.177094,1.000000 501.000000,1.000000 
	C501.000000,6.684732 501.000000,12.372658 501.000000,18.530293 
z"/>
<path fill="#FAFAFD" opacity="1.000000" stroke="none" 
	d="
M482.469360,501.000000 
	C490.834320,498.400482 497.199310,493.091644 500.679840,484.133362 
	C501.000000,489.596619 501.000000,495.193268 501.000000,501.000000 
	C494.980713,501.000000 488.959747,501.000000 482.469360,501.000000 
z"/>
<path fill="#F9F9FD" opacity="1.000000" stroke="none" 
	d="
M16.528801,1.000000 
	C10.793142,3.004534 5.144941,5.820426 1.279592,11.815844 
	C1.000000,8.394546 1.000000,4.789090 1.000000,1.000000 
	C6.018224,1.000000 11.037913,1.000000 16.528801,1.000000 
z"/>
<path fill="#FAF9FD" opacity="1.000000" stroke="none" 
	d="
M1.000000,490.482971 
	C4.951034,495.251007 9.908719,499.043732 16.696316,500.812744 
	C11.760435,501.000000 6.520870,501.000000 1.000000,501.000000 
	C1.000000,497.660400 1.000000,494.313171 1.000000,490.482971 
z"/>
<path fill="#FEFEFF" opacity="1.000000" stroke="none" 
	d="
M46.861633,169.999939 
	C46.861633,140.206345 46.861633,110.912773 46.861633,81.020592 
	C55.553658,81.020592 63.836174,80.840103 72.095421,81.197456 
	C73.479141,81.257332 75.101158,83.443016 76.040886,84.993271 
	C91.664558,110.767708 107.194885,136.598709 122.754555,162.411987 
	C123.678116,163.944153 124.673340,165.433151 125.989708,167.498398 
	C127.241203,165.570496 128.243591,164.136795 129.134766,162.637009 
	C144.360657,137.013214 159.663193,111.434013 174.686768,85.692024 
	C176.844849,81.994293 179.148636,80.676025 183.322113,80.899940 
	C190.090637,81.263107 196.892868,80.997772 204.223938,80.997772 
	C204.223938,127.767281 204.223938,174.010254 204.223938,220.628693 
	C194.505295,220.628693 184.628448,220.628693 174.257202,220.628693 
	C174.257202,193.444641 174.257202,166.354935 174.257202,139.265228 
	C173.905319,139.125061 173.553452,138.984894 173.201569,138.844727 
	C172.282379,140.272171 171.319672,141.673676 170.450592,143.131027 
	C159.363297,161.723083 148.027405,180.174988 137.374176,199.012833 
	C134.240356,204.554245 130.893326,206.707932 124.556389,206.402954 
	C119.846748,206.176300 117.200813,204.925049 114.761337,200.788254 
	C103.681541,181.999496 92.204414,163.444931 80.854866,144.815491 
	C80.035225,143.470123 79.092781,142.199585 77.374809,139.666672 
	C77.374809,167.519836 77.374809,193.901779 77.374809,220.641205 
	C67.162048,220.641205 57.417522,220.641205 46.861637,220.641205 
	C46.861637,203.987686 46.861637,187.243805 46.861633,169.999939 
z"/>
<path fill="#FEFEFF" opacity="1.000000" stroke="none" 
	d="
M377.652161,221.391083 
	C365.904663,219.016800 355.084412,215.507721 345.262299,208.308304 
	C349.474335,200.131683 353.570007,192.180908 357.873535,183.826675 
	C359.344238,184.669388 360.577271,185.356491 361.791840,186.074814 
	C376.222778,194.609573 391.712128,198.314240 408.244354,194.820435 
	C412.664490,193.886322 417.398834,191.148941 420.480682,187.836273 
	C427.553864,180.233231 424.247040,167.190735 414.313049,163.414185 
	C408.831482,161.330292 402.690155,160.379608 396.793121,160.118637 
	C385.153564,159.603531 373.477020,159.923187 361.815796,159.898941 
	C360.018036,159.895218 358.220245,159.898422 355.626160,159.898422 
	C358.032166,133.376770 360.385834,107.431831 362.760162,81.259506 
	C391.227386,81.259506 419.315338,81.259506 447.817230,81.259506 
	C447.817230,89.659210 447.817230,98.024971 447.817230,106.884071 
	C428.689240,106.884071 409.608643,106.884071 389.971527,106.884071 
	C389.219849,115.826538 388.505035,124.330368 387.713379,133.748535 
	C393.691956,133.748535 399.022797,133.265045 404.230591,133.859573 
	C412.453186,134.798294 420.852264,135.608704 428.712341,137.999771 
	C443.537689,142.509720 453.176361,152.635483 455.977997,168.193100 
	C459.011749,185.039642 454.592316,199.673889 441.115936,210.734131 
	C428.607544,220.999969 413.587738,223.647797 397.936310,223.314270 
	C391.303772,223.172943 384.690491,222.127167 377.652161,221.391083 
z"/>
<path fill="#FFFFFF" opacity="1.000000" stroke="none" 
	d="
M338.921997,107.437546 
	C325.627502,107.438347 312.826752,107.438347 299.500244,107.438347 
	C299.500244,145.343948 299.500244,182.750534 299.500244,220.576935 
	C288.455963,220.576935 277.933746,220.576935 266.950256,220.576935 
	C266.950256,183.053482 266.950256,145.624588 266.950256,107.622101 
	C251.907974,107.622101 237.310043,107.622101 222.366623,107.622101 
	C222.366623,98.632011 222.366623,90.206390 222.366623,81.388916 
	C262.648651,81.388916 303.026917,81.388916 343.722778,81.388916 
	C343.722778,89.804314 343.722778,98.209984 343.722778,107.023064 
	C342.266327,107.162956 340.841034,107.299850 338.921997,107.437546 
z"/>
<path fill="#FAFDFE" opacity="1.000000" stroke="none" 
	d="
M235.717514,416.040649 
	C236.266403,417.452606 236.692841,418.505768 237.543518,420.606628 
	C240.562988,411.698517 243.512390,403.836731 245.828049,395.792542 
	C246.901306,392.064209 249.087250,392.049164 252.085403,391.896698 
	C255.326904,391.731873 256.810303,392.889160 257.722748,395.967316 
	C260.067352,403.876862 262.732300,411.691437 266.470947,419.649170 
	C268.725830,412.789673 270.978638,405.929474 273.236176,399.070801 
	C275.708130,391.560669 275.710022,391.561279 284.440826,392.307190 
	C284.210510,393.536163 284.114227,394.776917 283.741180,395.927948 
	C280.047455,407.324890 276.107330,418.647247 272.690643,430.125793 
	C271.501953,434.119354 269.091278,434.054352 265.948547,434.077362 
	C262.746368,434.100800 260.365448,434.000244 259.281769,430.024689 
	C257.190643,422.353149 254.465576,414.854431 251.556763,405.911072 
	C248.559586,414.765656 245.727325,422.188263 243.595901,429.806976 
	C242.435974,433.953064 239.982193,434.089600 236.583405,434.098511 
	C233.262772,434.107239 231.194366,433.639099 230.050064,429.847412 
	C226.306366,417.442505 222.088623,405.180664 218.048416,392.849396 
	C226.697449,390.560516 227.643814,391.069824 230.208832,399.062531 
	C231.988312,404.607422 233.798569,410.142456 235.717514,416.040649 
z"/>
<path fill="#F9FDFE" opacity="1.000000" stroke="none" 
	d="
M202.423889,391.490967 
	C206.135422,392.508453 209.422409,393.447571 213.221909,394.533112 
	C212.021408,397.508118 211.128357,399.721222 210.380707,401.574005 
	C205.744781,400.682800 201.737534,399.543335 197.669937,399.254791 
	C194.748825,399.047516 190.887222,399.633179 191.060150,403.510254 
	C191.133499,405.154816 194.214203,407.182190 196.333313,408.099670 
	C199.660995,409.540375 203.391495,410.016632 206.842651,411.214600 
	C211.415039,412.801788 214.640442,415.785767 214.857330,420.967651 
	C215.083572,426.372467 212.529480,430.393463 207.697632,432.534973 
	C198.282227,436.707947 189.241364,434.981598 179.805496,430.129791 
	C180.928345,427.634796 181.910110,425.453339 183.045868,422.929688 
	C184.943604,423.720825 186.516617,424.662994 188.213318,425.024414 
	C191.760544,425.780060 195.418152,426.837219 198.941620,426.575409 
	C201.037109,426.419708 202.963669,423.990845 204.966187,422.583984 
	C203.220657,421.067627 201.705536,418.992889 199.679306,418.156830 
	C196.013687,416.644379 191.957336,416.103729 188.222717,414.727051 
	C184.078598,413.199463 181.199661,410.365692 180.860458,405.572296 
	C180.509689,400.615326 182.084167,396.071320 186.617706,394.350372 
	C191.424088,392.525879 196.846176,392.323456 202.423889,391.490967 
z"/>
<path fill="#F8FCFE" opacity="1.000000" stroke="none" 
	d="
M319.784912,415.793823 
	C318.494019,417.103851 317.255066,418.649048 315.927155,418.729706 
	C310.979919,419.030090 306.003448,418.849609 300.380646,418.849609 
	C300.380646,424.110687 300.380646,428.842285 300.380646,433.725983 
	C296.789429,433.725983 293.869049,433.725983 290.642822,433.725983 
	C290.642822,419.856110 290.642822,406.277344 290.642822,392.339569 
	C301.117584,392.339569 311.355347,392.339569 321.899231,392.339569 
	C321.899231,394.726013 321.899231,397.142700 321.899231,400.074982 
	C314.642090,400.074982 307.702087,400.074982 300.591370,400.074982 
	C300.591370,403.832458 300.591370,407.070557 300.591370,410.902100 
	C305.751740,410.902100 310.555389,411.089874 315.336121,410.839539 
	C318.824860,410.656830 320.329071,411.852264 319.784912,415.793823 
z"/>
</svg>